<?xml version="1.0" encoding="UTF-8"?>
<svg xmlns="http://www.w3.org/2000/svg" version="1.1" xmlns:xlink="http://www.w3.org/1999/xlink" viewBox="0 0 456.26 426.52">
  <defs>
    <style>
      .cls-1 {
        opacity: .03;
      }

      .cls-2 {
        fill: url(#linear-gradient-2);
      }

      .cls-3 {
        fill: #fff;
      }

      .cls-4 {
        fill: #fede21;
      }

      .cls-5 {
        fill: none;
        stroke: #5ac5c4;
        stroke-miterlimit: 10;
        stroke-width: 3px;
      }

      .cls-6 {
        fill: #5482a2;
      }

      .cls-7 {
        fill: url(#linear-gradient-3);
      }

      .cls-8 {
        font-family: CascadiaCode, 'Cascadia Code';
        font-size: 14px;
      }

      .cls-8, .cls-9 {
        fill: #a09f9f;
      }

      .cls-10 {
        fill: #f7f7f7;
      }

      .cls-11 {
        fill: #1e74bb;
      }

      .cls-12 {
        fill: #e8c92f;
      }

      .cls-13 {
        fill: #7d7d7d;
      }

      .cls-14 {
        fill: #4dbb80;
      }

      .cls-15 {
        fill: #7a7fbd;
      }

      .cls-16 {
        fill: #e35126;
      }

      .cls-17 {
        fill: #1e88c7;
      }

      .cls-18 {
        fill: #e67125;
      }

      .cls-19 {
        fill: url(#linear-gradient);
      }

      .cls-20 {
        fill: #ef672b;
      }

      .cls-21 {
        fill: #878787;
      }
    </style>
    <linearGradient id="linear-gradient" x1="381.17" y1="45.88" x2="381.17" y2="362.05" gradientUnits="userSpaceOnUse">
      <stop offset="0" stop-color="#03aa4b"/>
      <stop offset=".09" stop-color="#0da349"/>
      <stop offset=".25" stop-color="#279344"/>
      <stop offset=".46" stop-color="#53783d"/>
      <stop offset=".7" stop-color="#905233"/>
      <stop offset=".97" stop-color="#dd2326"/>
      <stop offset="1" stop-color="#e61e25"/>
    </linearGradient>
    <linearGradient id="linear-gradient-2" x1="-173.04" y1="584.51" x2="-173.03" y2="584.5" gradientTransform="translate(320233.84 1083579.55) scale(1849.27 -1853.39)" gradientUnits="userSpaceOnUse">
      <stop offset="0" stop-color="#3a7fb9"/>
      <stop offset="1" stop-color="#376a95"/>
    </linearGradient>
    <linearGradient id="linear-gradient-3" x1="-173.38" y1="584.84" x2="-173.37" y2="584.84" gradientTransform="translate(320878.25 1084207.01) scale(1849.27 -1853.39)" gradientUnits="userSpaceOnUse">
      <stop offset="0" stop-color="#fee053"/>
      <stop offset="1" stop-color="#ffc433"/>
    </linearGradient>
  </defs>
  <!-- Generator: Adobe Illustrator 28.6.0, SVG Export Plug-In . SVG Version: 1.2.0 Build 709)  -->
  <g>
    <g id="bg">
      <rect class="cls-10" x="16.11" y="14.17" width="423.63" height="400.61" rx="15.29" ry="15.29" transform="translate(455.85 428.95) rotate(180)"/>
      <rect class="cls-1" x="16.11" y="114.88" width="423.63" height="299.9" rx="15.29" ry="15.29" transform="translate(455.85 529.66) rotate(180)"/>
      <rect class="cls-1" x="16.11" y="212.26" width="423.63" height="202.52" rx="15.29" ry="15.29" transform="translate(455.85 627.05) rotate(180)"/>
      <rect class="cls-1" x="16.11" y="309.68" width="423.63" height="105.1" rx="15.29" ry="15.29" transform="translate(455.85 724.46) rotate(180)"/>
    </g>
    <g id="base">
      <g>
        <g>
          <path class="cls-15" d="M278.8,37.15h-6.59c-1.39,0-2.52,1.13-2.52,2.52v22.2c0,1.36,1.11,2.46,2.46,2.46h6.7c1.36,0,2.46-1.11,2.46-2.46v-22.2c0-1.39-1.13-2.52-2.52-2.52h0ZM279.63,61.87c0,.43-.35.78-.78.78h-6.7c-.43,0-.78-.35-.78-.78v-22.2c0-.46.37-.83.83-.83h6.59c.46,0,.83.37.83.83v22.2h0Z"/>
          <path class="cls-15" d="M265.65,58.59v-18.35c0-.31-.25-.56-.56-.56h-31c-.31,0-.56.25-.56.56v18.35c0,.31.25.56.56.56h31c.31,0,.56-.25.56-.56ZM264.52,58.03h-29.88v-17.23h29.88v17.23Z"/>
          <path class="cls-15" d="M243.72,62.65h-2.3c-.46,0-.84.38-.84.84s.38.84.84.84h16.33c.46,0,.84-.38.84-.84s-.38-.84-.84-.84h-2.3l-.4-.97h10.66c1.36,0,2.46-1.11,2.46-2.46v-19.6c0-1.36-1.11-2.46-2.46-2.46h-32.25c-1.36,0-2.46,1.11-2.46,2.46v19.6c0,1.36,1.11,2.46,2.46,2.46h10.66l-.4.97h0ZM253.63,62.65h-8.08l.4-.97h7.28l.4.97ZM232.68,59.21v-19.6c0-.43.35-.78.78-.78h32.25c.43,0,.78.35.78.78v19.6c0,.43-.35.78-.78.78h-32.25c-.43,0-.78-.35-.78-.78h0Z"/>
          <path class="cls-15" d="M278.58,39.44h-6.15c-.31,0-.56.25-.56.56v13.3c0,.31.25.56.56.56h6.15c.31,0,.56-.25.56-.56v-13.3c0-.31-.25-.56-.56-.56h0ZM278.01,40.56v4.32h-5.02v-4.32h5.02ZM272.99,47.5v-1.5h5.02v1.5h-5.02ZM278.01,48.62v1.5h-5.02v-1.5h5.02ZM272.99,52.74v-1.5h5.02v1.5h-5.02Z"/>
          <path class="cls-15" d="M273.71,54.83c-.15,0-.29.06-.4.17-.1.1-.16.25-.16.4s.06.29.16.4.25.16.4.16.29-.06.4-.16c.1-.11.17-.25.17-.4s-.06-.29-.17-.4c-.1-.11-.25-.17-.4-.17Z"/>
          <path class="cls-15" d="M275.5,54.83c-.15,0-.29.06-.4.17s-.16.25-.16.4.06.29.16.4c.1.1.25.16.4.16s.29-.06.4-.16c.1-.1.17-.25.17-.4s-.06-.29-.17-.4c-.1-.1-.25-.17-.4-.17Z"/>
          <path class="cls-15" d="M277.3,54.83c-.15,0-.29.06-.4.17-.1.1-.16.25-.16.4s.06.29.16.4.25.16.4.16.29-.06.4-.16c.1-.1.17-.25.17-.4s-.06-.29-.17-.4c-.1-.1-.25-.17-.4-.17Z"/>
          <path class="cls-15" d="M262.8,65.49h-26.42c-.46,0-.84.38-.84.84v10.85c0,.46.38.84.84.84h26.42c.46,0,.84-.38.84-.84v-10.85c0-.46-.38-.84-.84-.84ZM261.95,76.35h-24.74v-9.17h24.74v9.17h0Z"/>
          <path class="cls-15" d="M268.03,66.92c-1.91,0-3.46,1.55-3.46,3.46v2.39c0,1.91,1.55,3.46,3.46,3.46s3.46-1.55,3.46-3.46v-2.39c0-1.91-1.55-3.46-3.46-3.46ZM269.71,69.82h-1.12v-1.12c.53.18.95.59,1.12,1.12ZM267.46,68.69v1.12h-1.12c.18-.53.6-.95,1.12-1.12ZM268.03,74.55c-.98,0-1.78-.8-1.78-1.78v-1.83h3.56v1.83c0,.98-.8,1.78-1.78,1.78Z"/>
          <path class="cls-15" d="M238.62,75.43h21.93c.31,0,.56-.25.56-.56v-6.21c0-.31-.25-.56-.56-.56h-21.93c-.31,0-.56.25-.56.56v6.21c0,.31.25.56.56.56h0ZM239.18,73.36h1.62v.95h-1.62v-.95ZM244.26,71.29v.95h-1.62v-.95h1.62ZM257.97,71.29v.95h-1.62v-.95h1.62ZM255.23,71.29v.95h-1.62v-.95h1.62ZM252.48,71.29v.95h-1.62v-.95h1.62ZM249.74,71.29v.95h-1.62v-.95h1.62ZM247,71.29v.95h-1.62v-.95h1.62ZM243.54,73.36v.95h-1.62v-.95h1.62ZM244.66,73.36h1.62v.95h-1.62v-.95ZM247.41,73.36h1.62v.95h-1.62v-.95ZM250.15,73.36h1.62v.95h-1.62v-.95ZM252.89,73.36h1.62v.95h-1.62v-.95ZM255.63,73.36h1.62v.95h-1.62v-.95h0ZM259.09,71.29h.9v.95h-.9v-.95h0ZM255.63,70.16v-.95h1.62v.95h-1.62ZM254.51,70.16h-1.62v-.95h1.62v.95ZM251.77,70.16h-1.62v-.95h1.62v.95h0ZM249.02,70.16h-1.62v-.95h1.62v.95ZM246.28,70.16h-1.62v-.95h1.62v.95ZM243.54,70.16h-1.62v-.95h1.62v.95h0ZM241.52,71.29v.95h-2.34v-.95h2.34ZM258.37,74.31v-.95h1.62v.95h-1.62ZM259.99,70.16h-1.62v-.95h1.62v.95ZM240.8,69.22v.95h-1.62v-.95h1.62Z"/>
        </g>
        <g>
          <path class="cls-15" d="M237.61,85.45c0-.52.08-.97.25-1.34.17-.37.41-.66.72-.85.32-.19.7-.29,1.14-.29.33,0,.64.07.94.22.3.15.45.46.45.93h-.67c0-.36-.24-.53-.71-.53-.28,0-.52.07-.73.22-.21.14-.37.35-.48.63s-.17.6-.17.99c0,.64.14,1.11.41,1.43.28.32.69.48,1.23.48.33,0,.66-.07.98-.21l.16.6c-.4.16-.81.23-1.25.23-1.51,0-2.26-.83-2.26-2.5Z"/>
          <path class="cls-15" d="M245.02,87.81c-.18.05-.36.09-.53.11-.17.02-.35.03-.55.03-.28,0-.51-.05-.68-.15s-.3-.25-.38-.46-.12-.48-.12-.82v-3.16h-1.07v-.6h1.79v3.73c0,.21.02.37.06.48.04.12.11.2.21.26.11.06.26.08.47.08.1,0,.21-.01.32-.03.12-.02.25-.05.4-.1l.08.64Z"/>
          <path class="cls-15" d="M248.14,87.29h1.11v.59h-3.22v-.59h1.38v-2.43h-1.18v-.6h1.9v3.03ZM247.48,83.62c-.08-.05-.14-.11-.18-.18s-.07-.16-.07-.25.02-.18.07-.25.11-.14.18-.18.16-.07.25-.07.18.02.25.07.14.11.18.18.07.16.07.25-.02.18-.07.25-.11.14-.18.18-.16.07-.25.07-.18-.02-.25-.07Z"/>
          <path class="cls-15" d="M253.2,86.39h-2.45c.06.3.21.53.43.69.22.16.52.24.88.24.28,0,.58-.03.89-.1l.09.64c-.33.06-.69.1-1.06.1-.41,0-.76-.07-1.05-.22s-.51-.36-.66-.64-.23-.62-.23-1.03.06-.73.19-1.01c.13-.28.31-.5.56-.64.25-.15.54-.22.88-.22.49,0,.87.15,1.14.45.27.3.4.73.4,1.29,0,.17,0,.32-.02.46ZM252.57,85.84c0-.32-.08-.57-.23-.75-.15-.17-.37-.26-.64-.26s-.5.09-.67.26c-.17.18-.26.43-.29.75h1.84Z"/>
          <path class="cls-15" d="M256.9,84.54c.21.23.31.56.31.98v2.36h-.72v-2.36c0-.23-.06-.4-.17-.53-.11-.12-.27-.19-.48-.19-.57,0-.85.35-.85,1.04v2.04h-.72v-3.62h.66l.06.66h.08c.02-.24.11-.43.27-.54.16-.12.39-.18.69-.18.38,0,.68.12.89.35Z"/>
          <path class="cls-15" d="M261.41,87.87c-.32.05-.64.08-.95.08-.37,0-.67-.05-.9-.15s-.4-.25-.5-.46c-.11-.21-.16-.48-.16-.82v-1.65h-.91v-.6h.91v-1.09h.72v1.09h1.65v.6h-1.65v1.62c0,.29.07.5.21.63s.37.19.69.19c.1,0,.22,0,.34-.02.12-.01.27-.03.46-.05l.08.64Z"/>
        </g>
      </g>
      <g>
        <g>
          <g>
            <path class="cls-15" d="M267.41,343.85h-32.51c-.67,0-1.22.54-1.22,1.22v8.12c0,.67.54,1.22,1.22,1.22h32.51c.67,0,1.22-.54,1.22-1.22v-8.12c0-.67-.54-1.22-1.22-1.22ZM266.91,352.64h-31.4v-7.04h31.4v7.04Z"/>
            <path d="M261.33,348.31c.45,0,.81.36.81.81,0,0,0,0,0,0,0-.45-.37-.82-.82-.82s-.82.37-.82.82c0,0,0,0,0,0,0-.45.37-.81.82-.81Z"/>
            <path class="cls-15" d="M261.33,350.75c.9,0,1.63-.73,1.63-1.63s-.73-1.63-1.63-1.63-1.63.73-1.63,1.63.73,1.63,1.63,1.63ZM260.51,349.12c0-.45.37-.82.82-.82s.82.37.82.82c0,0,0,0,0,0,0,0,0,0,0,0,0,.45-.37.82-.82.82s-.82-.37-.82-.82c0,0,0,0,0,0,0,0,0,0,0,0Z"/>
            <path class="cls-3" d="M261.33,349.94c.45,0,.82-.37.82-.82,0,0,0,0,0,0,0,.45-.37.81-.82.81s-.81-.36-.81-.81c0,0,0,0,0,0,0,.45.37.82.82.82Z"/>
          </g>
          <g>
            <path class="cls-15" d="M267.41,356.37h-32.51c-.67,0-1.22.54-1.22,1.22v8.12c0,.67.54,1.22,1.22,1.22h32.51c.67,0,1.22-.54,1.22-1.22v-8.12c0-.67-.54-1.22-1.22-1.22ZM266.91,365.16h-31.4v-7.04h31.4v7.04Z"/>
            <path d="M261.33,360.83c.45,0,.81.36.81.81,0,0,0,0,0,0,0-.45-.37-.82-.82-.82s-.82.37-.82.82c0,0,0,0,0,0,0-.45.37-.81.82-.81Z"/>
            <path class="cls-15" d="M261.33,363.27c.9,0,1.63-.73,1.63-1.63s-.73-1.63-1.63-1.63-1.63.73-1.63,1.63.73,1.63,1.63,1.63ZM260.51,361.64c0-.45.37-.82.82-.82s.82.37.82.82c0,0,0,0,0,0,0,0,0,0,0,0,0,.45-.37.82-.82.82s-.82-.37-.82-.82c0,0,0,0,0,0,0,0,0,0,0,0Z"/>
            <path class="cls-3" d="M261.33,362.46c.45,0,.82-.37.82-.82,0,0,0,0,0,0,0,.45-.37.81-.82.81s-.81-.36-.81-.81c0,0,0,0,0,0,0,.45.37.82.82.82Z"/>
          </g>
          <g>
            <path class="cls-15" d="M267.41,368.89h-32.51c-.67,0-1.22.54-1.22,1.22v8.12c0,.67.54,1.22,1.22,1.22h32.51c.67,0,1.22-.54,1.22-1.22v-8.12c0-.67-.54-1.22-1.22-1.22ZM266.91,377.68h-31.4v-7.04h31.4v7.04Z"/>
            <path d="M261.33,373.35c.45,0,.81.36.81.81,0,0,0,0,0,0,0-.45-.37-.82-.82-.82s-.82.37-.82.82c0,0,0,0,0,0,0-.45.37-.81.82-.81Z"/>
            <path class="cls-15" d="M261.33,375.8c.9,0,1.63-.73,1.63-1.63s-.73-1.63-1.63-1.63-1.63.73-1.63,1.63.73,1.63,1.63,1.63ZM260.51,374.16c0-.45.37-.82.82-.82s.82.37.82.82c0,0,0,0,0,0,0,0,0,0,0,0,0,.45-.37.82-.82.82s-.82-.37-.82-.82c0,0,0,0,0,0,0,0,0,0,0,0Z"/>
            <path class="cls-3" d="M261.33,374.98c.45,0,.82-.37.82-.82,0,0,0,0,0,0,0,.45-.37.81-.82.81s-.81-.36-.81-.81c0,0,0,0,0,0,0,.45.37.82.82.82Z"/>
          </g>
        </g>
        <g>
          <path class="cls-15" d="M242.18,386.43c.18.22.27.48.27.8,0,.45-.14.79-.43,1.01-.29.23-.72.34-1.3.34s-1.03-.09-1.44-.27l.09-.66c.51.2.98.3,1.41.3.32,0,.55-.06.71-.18s.23-.3.23-.54c0-.29-.15-.5-.44-.64l-.84-.38c-.34-.16-.6-.34-.77-.55-.17-.21-.26-.47-.26-.78,0-.28.06-.52.18-.72.12-.2.3-.35.53-.46.23-.1.51-.16.83-.16.29,0,.54.05.75.14.21.09.37.22.48.39s.16.38.16.62h-.67c0-.17-.06-.3-.19-.39-.12-.09-.3-.14-.53-.14-.25,0-.45.06-.59.18s-.21.28-.21.49c0,.15.04.28.12.38.08.1.21.19.38.27l.71.33c.37.18.65.37.83.59Z"/>
          <path class="cls-15" d="M246.57,386.99h-2.45c.06.3.21.53.43.69.22.16.52.24.88.24.28,0,.58-.03.89-.1l.09.64c-.33.06-.69.1-1.06.1-.41,0-.76-.07-1.05-.22s-.51-.36-.66-.64-.23-.62-.23-1.03.06-.73.19-1.01c.13-.28.31-.5.56-.64.25-.15.54-.22.88-.22.49,0,.87.15,1.14.45.27.3.4.73.4,1.29,0,.17,0,.32-.02.46ZM245.94,386.44c0-.32-.08-.57-.23-.75-.15-.17-.37-.26-.64-.26s-.5.09-.67.26c-.17.18-.26.43-.29.75h1.84Z"/>
          <path class="cls-15" d="M250.54,384.93c.16.09.27.24.34.44s.11.46.11.78h-.72c0-.26-.04-.45-.12-.57-.08-.12-.21-.18-.38-.18-.3,0-.53.13-.69.39-.15.26-.23.64-.23,1.13v.96h.89v.6h-2.42v-.6h.81v-2.42h-.67v-.6h1.26l.12.93h.08c.02-.33.11-.58.28-.75s.41-.25.72-.25c.25,0,.45.05.61.14Z"/>
          <path class="cls-15" d="M251.43,384.86h.77l.99,3.08h.06l.96-3.08h.77l-1.28,3.69h-.96l-1.31-3.69Z"/>
          <path class="cls-15" d="M258.88,386.99h-2.45c.06.3.21.53.43.69.22.16.52.24.88.24.28,0,.58-.03.89-.1l.09.64c-.33.06-.69.1-1.06.1-.41,0-.76-.07-1.05-.22s-.51-.36-.66-.64-.23-.62-.23-1.03.06-.73.19-1.01c.13-.28.31-.5.56-.64.25-.15.54-.22.88-.22.49,0,.87.15,1.14.45.27.3.4.73.4,1.29,0,.17,0,.32-.02.46ZM258.24,386.44c0-.32-.08-.57-.23-.75-.15-.17-.37-.26-.64-.26s-.5.09-.67.26c-.17.18-.26.43-.29.75h1.84Z"/>
          <path class="cls-15" d="M262.84,384.93c.16.09.27.24.34.44s.11.46.11.78h-.72c0-.26-.04-.45-.12-.57-.08-.12-.21-.18-.38-.18-.3,0-.53.13-.69.39-.15.26-.23.64-.23,1.13v.96h.89v.6h-2.42v-.6h.81v-2.42h-.67v-.6h1.26l.12.93h.08c.02-.33.11-.58.28-.75s.41-.25.72-.25c.25,0,.45.05.61.14Z"/>
        </g>
      </g>
      <path class="cls-15" d="M300.12,186.47v-37.67c0-.64-.52-1.15-1.15-1.15h-95.3c-.64,0-1.15.52-1.15,1.15v37.67c0,.64.52,1.15,1.15,1.15h95.3c.64,0,1.15-.52,1.15-1.15ZM297.81,185.32h-93v-35.37h93v35.37Z"/>
      <path class="cls-15" d="M299.76,284.57v-37.67c0-.64-.52-1.15-1.15-1.15h-95.3c-.64,0-1.15.52-1.15,1.15v37.67c0,.64.52,1.15,1.15,1.15h95.3c.64,0,1.15-.52,1.15-1.15ZM297.45,283.42h-93v-35.37h93v35.37Z"/>
      <g>
        <path class="cls-9" d="M52.07,58.44c.56.25.98.63,1.27,1.12.29.49.43,1.08.43,1.78s-.14,1.34-.43,1.85c-.29.51-.71.9-1.27,1.17-.56.27-1.22.4-2,.4h-1.49v3.01h-1.37v-9.71h2.86c.78,0,1.45.13,2,.38ZM51.74,62.93c.4-.35.59-.83.59-1.46,0-.67-.2-1.2-.59-1.57s-.96-.55-1.67-.55h-1.49v4.1h1.49c.72,0,1.28-.17,1.67-.52Z"/>
        <path class="cls-9" d="M61.84,66.46v1.3h-6.43v-9.71h1.37v8.41h5.06Z"/>
        <path class="cls-9" d="M68.33,65.4h-3.45l-.64,2.37h-1.44l2.8-9.71h1.98l2.8,9.71h-1.44l-.64-2.37ZM67.98,64.1l-1.31-4.87h-.12l-1.31,4.87h2.75Z"/>
        <path class="cls-9" d="M78.38,59.35h-2.87v8.41h-1.37v-8.41h-2.87v-1.3h7.11v1.3Z"/>
        <path class="cls-9" d="M81.39,59.35v2.9h3.83v1.3h-3.83v2.91h5.06v1.3h-6.43v-9.71h6.43v1.3h-5.06Z"/>
        <path class="cls-9" d="M89.6,59.35v3.31h3.83v1.3h-3.83v3.8h-1.37v-9.71h6.43v1.3h-5.06Z"/>
        <path class="cls-9" d="M95.86,62.98c0-3.37,1.19-5.06,3.58-5.06s3.58,1.69,3.58,5.06-1.19,4.92-3.58,4.92-3.58-1.64-3.58-4.92ZM101.59,62.98c0-2.53-.72-3.8-2.15-3.8s-2.15,1.27-2.15,3.8.72,3.66,2.15,3.66,2.15-1.22,2.15-3.66Z"/>
        <path class="cls-9" d="M109.69,67.76l-1.76-3.69h-2.08v3.69h-1.37v-9.71h3.35c.67,0,1.24.12,1.71.35.47.23.83.56,1.08,1,.25.44.37.97.37,1.59,0,.69-.14,1.28-.42,1.76s-.69.83-1.22,1.05l2,3.96h-1.65ZM105.85,62.77h1.98c.54,0,.96-.14,1.27-.43.3-.29.46-.69.46-1.21,0-.57-.15-1-.45-1.31s-.72-.46-1.27-.46h-1.98v3.42Z"/>
        <path class="cls-9" d="M119.07,58.05v9.71h-1.31v-7.98h-.18l-1.04,4.02h-1.39l-1.04-4.02h-.18v7.98h-1.31v-9.71h2.13l1.04,4.17h.11l1.04-4.17h2.13Z"/>
        <path class="cls-9" d="M122.41,59.35v2.9h3.83v1.3h-3.83v2.91h5.06v1.3h-6.43v-9.71h6.43v1.3h-5.06Z"/>
        <path class="cls-9" d="M134.8,63.66c.36.43.54.97.54,1.6,0,.9-.29,1.58-.86,2.03-.57.45-1.44.68-2.6.68s-2.06-.18-2.88-.53l.18-1.33c1.01.4,1.95.6,2.82.6.63,0,1.11-.12,1.42-.35.31-.24.47-.59.47-1.07,0-.58-.3-1-.89-1.27l-1.68-.77c-.68-.31-1.2-.68-1.54-1.11s-.51-.95-.51-1.56c0-.56.12-1.04.36-1.44.24-.4.59-.7,1.05-.91s1.01-.31,1.66-.31c.58,0,1.08.09,1.5.27.42.18.73.45.95.79.22.34.32.76.32,1.25h-1.34c0-.34-.12-.6-.38-.78s-.6-.27-1.06-.27c-.51,0-.91.12-1.19.35-.28.24-.42.56-.42.99,0,.31.08.56.24.76.16.2.41.38.76.54l1.42.67c.75.35,1.3.74,1.66,1.17Z"/>
      </g>
      <g>
        <path class="cls-9" d="M63.45,163.65h2.16v1.27h-6.03v-1.27h2.42v-7.1l-2.28.52v-1.31l2.28-.55h1.45v8.44Z"/>
        <path class="cls-9" d="M68.75,165.01c-.39-.03-.74-.08-1.06-.16l.16-1.31c.93.15,1.7.22,2.31.22.73,0,1.26-.07,1.59-.21.33-.14.5-.37.5-.69,0-.21-.06-.37-.17-.48-.11-.11-.29-.2-.54-.26l-1.67-.42c-.46-.12-.84-.25-1.11-.41s-.49-.35-.62-.59c-.14-.24-.21-.54-.21-.9,0-.53.13-.96.39-1.29.26-.33.66-.57,1.2-.73.54-.16,1.25-.23,2.13-.23.67,0,1.3.05,1.91.14l-.15,1.26c-.69-.06-1.29-.1-1.8-.1-.77,0-1.32.07-1.66.21-.34.14-.51.37-.51.68,0,.2.06.35.18.45s.32.19.6.26l1.34.33c.52.13.94.28,1.26.45s.56.39.71.65.23.58.23.96c0,.52-.12.95-.38,1.28-.25.33-.64.57-1.17.72-.53.16-1.21.23-2.05.23-.56,0-1.03-.02-1.42-.05Z"/>
        <path class="cls-9" d="M82.08,164.89c-.64.11-1.28.16-1.9.16-.74,0-1.33-.1-1.79-.3s-.79-.51-1-.93-.32-.97-.32-1.64v-3.31h-1.82v-1.2h1.82v-2.19h1.45v2.19h3.29v1.2h-3.29v3.24c0,.58.14,1,.42,1.25.28.26.74.39,1.38.39.21,0,.43-.01.67-.03.24-.02.55-.06.93-.1l.16,1.27Z"/>
        <path class="cls-9" d="M98.48,164.89c-.64.11-1.28.16-1.9.16-.74,0-1.33-.1-1.79-.3s-.79-.51-1-.93-.32-.97-.32-1.64v-3.31h-1.82v-1.2h1.82v-2.19h1.45v2.19h3.29v1.2h-3.29v3.24c0,.58.14,1,.42,1.25.28.26.74.39,1.38.39.21,0,.43-.01.67-.03.24-.02.55-.06.93-.1l.16,1.27Z"/>
        <path class="cls-9" d="M104.74,163.73h2.23v1.19h-6.44v-1.19h2.76v-4.85h-2.35v-1.2h3.8v6.06ZM103.43,156.39c-.16-.09-.28-.21-.37-.37s-.14-.32-.14-.51.05-.35.14-.51.21-.28.37-.37.32-.14.51-.14.35.05.51.14.28.21.37.37.14.32.14.51-.05.35-.14.51-.21.28-.37.37-.32.14-.51.14-.35-.05-.51-.14Z"/>
        <path class="cls-9" d="M114.87,161.94h-4.89c.13.6.42,1.06.86,1.37s1.03.47,1.76.47c.56,0,1.15-.06,1.78-.19l.18,1.27c-.67.13-1.38.19-2.12.19-.83,0-1.53-.15-2.1-.44-.58-.29-1.02-.72-1.32-1.28-.3-.56-.45-1.25-.45-2.05s.13-1.46.38-2.02.63-.99,1.12-1.29c.49-.3,1.08-.44,1.77-.44.98,0,1.74.3,2.28.9s.8,1.46.8,2.58c0,.33-.01.64-.04.93ZM113.6,160.83c0-.65-.15-1.15-.46-1.5-.31-.35-.74-.53-1.29-.53s-1.01.18-1.34.53-.53.85-.59,1.5h3.68Z"/>
        <path class="cls-9" d="M122.81,157.82c.31.19.54.48.69.88.15.4.22.92.22,1.56h-1.44c0-.52-.08-.9-.24-1.14-.16-.23-.41-.35-.76-.35-.61,0-1.06.26-1.37.78-.31.52-.46,1.27-.46,2.26v1.91h1.78v1.2h-4.84v-1.2h1.61v-4.84h-1.34v-1.2h2.52l.25,1.86h.16c.04-.67.23-1.17.56-1.5s.81-.5,1.44-.5c.5,0,.91.09,1.22.28Z"/>
        <path class="cls-9" d="M47.97,172.4c.56.25.98.63,1.27,1.12.29.49.43,1.08.43,1.78s-.14,1.34-.43,1.85c-.29.51-.71.9-1.27,1.17-.56.27-1.22.4-2,.4h-1.49v3.01h-1.37v-9.71h2.86c.78,0,1.45.13,2,.38ZM47.64,176.9c.4-.35.59-.83.59-1.46,0-.67-.2-1.2-.59-1.57s-.96-.55-1.67-.55h-1.49v4.1h1.49c.72,0,1.28-.17,1.67-.52Z"/>
        <path class="cls-9" d="M56.37,181.72l-1.76-3.69h-2.08v3.69h-1.37v-9.71h3.35c.67,0,1.24.12,1.71.35.47.23.83.56,1.08,1,.25.44.37.97.37,1.59,0,.69-.14,1.28-.42,1.76s-.69.83-1.22,1.05l2,3.96h-1.65ZM52.53,176.73h1.98c.54,0,.96-.14,1.27-.43.3-.29.46-.69.46-1.21,0-.57-.15-1-.45-1.31s-.72-.46-1.27-.46h-1.98v3.42Z"/>
        <path class="cls-9" d="M60.88,173.31v2.9h3.83v1.3h-3.83v2.91h5.06v1.3h-6.43v-9.71h6.43v1.3h-5.06Z"/>
        <path class="cls-9" d="M73.28,177.62c.36.43.54.97.54,1.6,0,.9-.29,1.58-.86,2.03-.57.45-1.44.68-2.6.68s-2.06-.18-2.88-.53l.18-1.33c1.01.4,1.95.6,2.82.6.63,0,1.11-.12,1.42-.35.31-.24.47-.59.47-1.07,0-.58-.3-1-.89-1.27l-1.68-.77c-.68-.31-1.2-.68-1.54-1.11s-.51-.95-.51-1.56c0-.56.12-1.04.36-1.44.24-.4.59-.7,1.05-.91s1.01-.31,1.66-.31c.58,0,1.08.09,1.5.27.42.18.73.45.95.79.22.34.32.76.32,1.25h-1.34c0-.34-.12-.6-.38-.78s-.6-.27-1.06-.27c-.51,0-.91.12-1.19.35-.28.24-.42.56-.42.99,0,.31.08.56.24.76.16.2.41.38.76.54l1.42.67c.75.35,1.3.74,1.66,1.17Z"/>
        <path class="cls-9" d="M77.29,173.31v2.9h3.83v1.3h-3.83v2.91h5.06v1.3h-6.43v-9.71h6.43v1.3h-5.06Z"/>
        <path class="cls-9" d="M88.91,172.01h1.31v9.71h-1.72l-3.01-7.18h-.14v7.18h-1.31v-9.71h1.72l3.01,7.51h.14v-7.51Z"/>
        <path class="cls-9" d="M98.89,173.31h-2.87v8.41h-1.37v-8.41h-2.87v-1.3h7.11v1.3Z"/>
        <path class="cls-9" d="M105.24,179.36h-3.45l-.64,2.37h-1.44l2.8-9.71h1.98l2.8,9.71h-1.44l-.64-2.37ZM104.89,178.06l-1.31-4.87h-.12l-1.31,4.87h2.75Z"/>
        <path class="cls-9" d="M115.3,173.31h-2.87v8.41h-1.37v-8.41h-2.87v-1.3h7.11v1.3Z"/>
        <path class="cls-9" d="M120.62,173.31v7.11h2.28v1.3h-5.91v-1.3h2.26v-7.11h-2.26v-1.3h5.91v1.3h-2.28Z"/>
        <path class="cls-9" d="M124.57,176.94c0-3.37,1.19-5.06,3.58-5.06s3.58,1.69,3.58,5.06-1.19,4.92-3.58,4.92-3.58-1.64-3.58-4.92ZM130.3,176.94c0-2.53-.72-3.8-2.15-3.8s-2.15,1.27-2.15,3.8.72,3.66,2.15,3.66,2.15-1.22,2.15-3.66Z"/>
        <path class="cls-9" d="M138.13,172.01h1.31v9.71h-1.72l-3.01-7.18h-.14v7.18h-1.31v-9.71h1.72l3.01,7.51h.14v-7.51Z"/>
      </g>
      <text class="cls-8" transform="translate(394 55.99)"><tspan x="0" y="0">-</tspan></text>
      <text class="cls-8" transform="translate(394 375.5)"><tspan x="0" y="0">+</tspan></text>
      <g>
        <path class="cls-21" d="M65.92,263.78v1.27h-6.32v-1.53c1.48-.82,2.59-1.67,3.33-2.56.74-.89,1.11-1.81,1.11-2.76,0-1.16-.57-1.74-1.7-1.74-.46,0-.81.12-1.06.35-.25.23-.37.56-.37.98h-1.46c0-.54.12-1.01.35-1.39.24-.39.58-.68,1.03-.88.45-.2.99-.3,1.62-.3,1.02,0,1.79.24,2.3.73.51.48.77,1.22.77,2.2s-.31,1.94-.94,2.84c-.62.91-1.57,1.77-2.84,2.6v.21h4.18Z"/>
        <path class="cls-21" d="M73.05,258.37c.42.46.63,1.12.63,1.97v4.72h-1.45v-4.72c0-.46-.11-.81-.34-1.06s-.55-.38-.96-.38c-1.14,0-1.71.69-1.71,2.08v4.07h-1.45v-7.25h1.31l.12,1.31h.16c.04-.49.22-.85.53-1.09.31-.24.77-.36,1.38-.36.77,0,1.36.23,1.78.7Z"/>
        <path class="cls-21" d="M81.88,254.8v10.25l-1.3.07-.12-1.19h-.16c-.05.41-.24.72-.58.94s-.79.32-1.35.32c-.61,0-1.13-.14-1.56-.43-.43-.28-.76-.7-.98-1.25-.22-.55-.34-1.22-.34-2.01s.11-1.5.34-2.07c.23-.57.56-1.01.99-1.31.43-.3.96-.45,1.57-.45s1.03.12,1.34.36c.32.24.51.6.57,1.09h.14v-4.32h1.45ZM80.43,262.73v-1.75c0-1.39-.62-2.08-1.85-2.08-.53,0-.94.23-1.23.68-.29.45-.43,1.09-.43,1.92s.14,1.42.42,1.84.7.62,1.26.62c1.22,0,1.83-.41,1.83-1.23Z"/>
        <path class="cls-21" d="M98.48,265.03c-.64.11-1.28.16-1.9.16-.74,0-1.33-.1-1.79-.3s-.79-.51-1-.93-.32-.97-.32-1.64v-3.31h-1.82v-1.2h1.82v-2.19h1.45v2.19h3.29v1.2h-3.29v3.24c0,.58.14,1,.42,1.25.28.26.74.39,1.38.39.21,0,.43-.01.67-.03.24-.02.55-.06.93-.1l.16,1.27Z"/>
        <path class="cls-21" d="M104.74,263.87h2.23v1.19h-6.44v-1.19h2.76v-4.85h-2.35v-1.2h3.8v6.06ZM103.43,256.52c-.16-.09-.28-.21-.37-.37s-.14-.32-.14-.51.05-.35.14-.51.21-.28.37-.37.32-.14.51-.14.35.05.51.14.28.21.37.37.14.32.14.51-.05.35-.14.51-.21.28-.37.37-.32.14-.51.14-.35-.05-.51-.14Z"/>
        <path class="cls-21" d="M114.87,262.07h-4.89c.13.6.42,1.06.86,1.37s1.03.47,1.76.47c.56,0,1.15-.06,1.78-.19l.18,1.27c-.67.13-1.38.19-2.12.19-.83,0-1.53-.15-2.1-.44-.58-.29-1.02-.72-1.32-1.28-.3-.56-.45-1.25-.45-2.05s.13-1.46.38-2.02.63-.99,1.12-1.29c.49-.3,1.08-.44,1.77-.44.98,0,1.74.3,2.28.9s.8,1.46.8,2.58c0,.33-.01.64-.04.93ZM113.6,260.97c0-.65-.15-1.15-.46-1.5-.31-.35-.74-.53-1.29-.53s-1.01.18-1.34.53-.53.85-.59,1.5h3.68Z"/>
        <path class="cls-21" d="M122.81,257.96c.31.19.54.48.69.88.15.4.22.92.22,1.56h-1.44c0-.52-.08-.9-.24-1.14-.16-.23-.41-.35-.76-.35-.61,0-1.06.26-1.37.78-.31.52-.46,1.27-.46,2.26v1.91h1.78v1.2h-4.84v-1.2h1.61v-4.84h-1.34v-1.2h2.52l.25,1.86h.16c.04-.67.23-1.17.56-1.5s.81-.5,1.44-.5c.5,0,.91.09,1.22.28Z"/>
        <path class="cls-21" d="M70.04,280.56v1.3h-6.43v-9.71h1.37v8.41h5.06Z"/>
        <path class="cls-21" d="M71.25,277.07c0-3.37,1.19-5.06,3.58-5.06s3.58,1.69,3.58,5.06-1.19,4.92-3.58,4.92-3.58-1.64-3.58-4.92ZM76.98,277.07c0-2.53-.72-3.8-2.15-3.8s-2.15,1.27-2.15,3.8.72,3.66,2.15,3.66,2.15-1.22,2.15-3.66Z"/>
        <path class="cls-21" d="M86.59,281.58c-.31.1-.69.19-1.16.28s-.96.13-1.5.13c-2.9,0-4.35-1.67-4.35-5,0-1.05.17-1.95.5-2.69.33-.75.81-1.31,1.45-1.7.63-.39,1.39-.58,2.28-.58,1.85,0,2.78.77,2.78,2.31h-1.34c0-.36-.13-.62-.39-.79s-.65-.26-1.17-.26c-.56,0-1.03.14-1.43.43-.39.28-.69.7-.9,1.25-.21.55-.31,1.21-.31,1.98,0,1.27.25,2.22.77,2.86.51.63,1.27.95,2.28.95.38,0,.77-.05,1.19-.14v-2.3h-1.98v-1.3h3.28v4.58Z"/>
        <path class="cls-21" d="M91.91,273.45v7.11h2.28v1.3h-5.91v-1.3h2.26v-7.11h-2.26v-1.3h5.91v1.3h-2.28Z"/>
        <path class="cls-21" d="M101.69,283.77h.7l-.14,1.23h-.56c-1.98,0-2.97-1-2.97-3.01v-.05c-1.91-.31-2.87-1.93-2.87-4.87,0-3.37,1.19-5.06,3.58-5.06s3.58,1.69,3.58,5.06c0,2.97-.98,4.6-2.94,4.88v.05c0,1.18.54,1.76,1.61,1.76ZM99.44,280.73c1.43,0,2.15-1.22,2.15-3.66s-.72-3.8-2.15-3.8-2.15,1.27-2.15,3.8.72,3.66,2.15,3.66Z"/>
        <path class="cls-21" d="M104.5,278.6v-6.45h1.37v6.45c0,.66.14,1.15.43,1.47s.74.49,1.35.49,1.03-.16,1.33-.49c.3-.33.45-.82.45-1.46v-6.45h1.37v6.45c0,1.08-.27,1.89-.8,2.44-.54.54-1.33.82-2.37.82-2.08,0-3.12-1.08-3.12-3.25Z"/>
        <path class="cls-21" d="M114.2,273.45v2.9h3.83v1.3h-3.83v2.91h5.06v1.3h-6.43v-9.71h6.43v1.3h-5.06Z"/>
      </g>
      <g>
        <path class="cls-13" d="M64.81,354.54c.35.23.61.52.8.88.19.36.28.78.28,1.25,0,.57-.13,1.07-.39,1.48-.26.41-.64.72-1.15.94s-1.11.32-1.81.32c-2.2,0-3.29-.95-3.29-2.86h1.46c0,1.07.59,1.6,1.78,1.6.62,0,1.09-.14,1.43-.42.34-.28.51-.68.51-1.19,0-.57-.25-1-.77-1.31s-1.23-.46-2.16-.46h-.22l-.16-.89c1.03-.13,1.8-.36,2.29-.69.5-.33.74-.74.74-1.24,0-.4-.14-.71-.42-.93-.28-.22-.67-.33-1.18-.33s-.93.12-1.21.35c-.29.23-.43.56-.43.98h-1.46c0-.54.13-1.01.38-1.39s.63-.68,1.11-.88c.49-.2,1.07-.3,1.76-.3.93,0,1.65.19,2.15.56.51.38.76.91.76,1.61,0,.37-.08.72-.25,1.04-.17.32-.41.59-.71.81s-.66.39-1.06.49v.14c.46.08.86.23,1.21.46Z"/>
        <path class="cls-13" d="M73.59,352.17c.31.19.54.48.69.88.15.4.22.92.22,1.56h-1.44c0-.52-.08-.9-.24-1.14-.16-.23-.41-.35-.76-.35-.61,0-1.06.26-1.37.78-.31.52-.46,1.27-.46,2.26v1.91h1.78v1.2h-4.84v-1.2h1.61v-4.84h-1.34v-1.2h2.52l.25,1.86h.16c.04-.67.23-1.17.56-1.5s.81-.5,1.44-.5c.5,0,.91.09,1.22.28Z"/>
        <path class="cls-13" d="M81.88,349.02v10.25l-1.3.07-.12-1.19h-.16c-.05.41-.24.72-.58.94s-.79.32-1.35.32c-.61,0-1.13-.14-1.56-.43-.43-.28-.76-.7-.98-1.25-.22-.55-.34-1.22-.34-2.01s.11-1.5.34-2.07c.23-.57.56-1.01.99-1.31.43-.3.96-.45,1.57-.45s1.03.12,1.34.36c.32.24.51.6.57,1.09h.14v-4.32h1.45ZM80.43,356.95v-1.75c0-1.39-.62-2.08-1.85-2.08-.53,0-.94.23-1.23.68-.29.45-.43,1.09-.43,1.92s.14,1.42.42,1.84.7.62,1.26.62c1.22,0,1.83-.41,1.83-1.23Z"/>
        <path class="cls-13" d="M98.48,359.25c-.64.11-1.28.16-1.9.16-.74,0-1.33-.1-1.79-.3s-.79-.51-1-.93-.32-.97-.32-1.64v-3.31h-1.82v-1.2h1.82v-2.19h1.45v2.19h3.29v1.2h-3.29v3.24c0,.58.14,1,.42,1.25.28.26.74.39,1.38.39.21,0,.43-.01.67-.03.24-.02.55-.06.93-.1l.16,1.27Z"/>
        <path class="cls-13" d="M104.74,358.08h2.23v1.19h-6.44v-1.19h2.76v-4.85h-2.35v-1.2h3.8v6.06ZM103.43,350.74c-.16-.09-.28-.21-.37-.37s-.14-.32-.14-.51.05-.35.14-.51.21-.28.37-.37.32-.14.51-.14.35.05.51.14.28.21.37.37.14.32.14.51-.05.35-.14.51-.21.28-.37.37-.32.14-.51.14-.35-.05-.51-.14Z"/>
        <path class="cls-13" d="M114.87,356.29h-4.89c.13.6.42,1.06.86,1.37s1.03.47,1.76.47c.56,0,1.15-.06,1.78-.19l.18,1.27c-.67.13-1.38.19-2.12.19-.83,0-1.53-.15-2.1-.44-.58-.29-1.02-.72-1.32-1.28-.3-.56-.45-1.25-.45-2.05s.13-1.46.38-2.02.63-.99,1.12-1.29c.49-.3,1.08-.44,1.77-.44.98,0,1.74.3,2.28.9s.8,1.46.8,2.58c0,.33-.01.64-.04.93ZM113.6,355.19c0-.65-.15-1.15-.46-1.5-.31-.35-.74-.53-1.29-.53s-1.01.18-1.34.53-.53.85-.59,1.5h3.68Z"/>
        <path class="cls-13" d="M122.81,352.17c.31.19.54.48.69.88.15.4.22.92.22,1.56h-1.44c0-.52-.08-.9-.24-1.14-.16-.23-.41-.35-.76-.35-.61,0-1.06.26-1.37.78-.31.52-.46,1.27-.46,2.26v1.91h1.78v1.2h-4.84v-1.2h1.61v-4.84h-1.34v-1.2h2.52l.25,1.86h.16c.04-.67.23-1.17.56-1.5s.81-.5,1.44-.5c.5,0,.91.09,1.22.28Z"/>
        <path class="cls-13" d="M81.61,367.65c.74.85,1.11,2.13,1.11,3.85,0,1.53-.37,2.68-1.11,3.44s-1.85,1.14-3.34,1.14h-2.35v-9.71h2.35c1.49,0,2.6.43,3.34,1.28ZM80.53,373.92c.5-.57.76-1.42.76-2.56,0-2.46-1-3.69-3.01-3.69h-.98v7.11h.98c1,0,1.75-.29,2.25-.85Z"/>
        <path class="cls-13" d="M88.84,373.71h-3.45l-.64,2.37h-1.44l2.8-9.71h1.98l2.8,9.71h-1.44l-.64-2.37ZM88.49,372.41l-1.31-4.87h-.12l-1.31,4.87h2.75Z"/>
        <path class="cls-13" d="M98.89,367.67h-2.87v8.41h-1.37v-8.41h-2.87v-1.3h7.11v1.3Z"/>
        <path class="cls-13" d="M105.24,373.71h-3.45l-.64,2.37h-1.44l2.8-9.71h1.98l2.8,9.71h-1.44l-.64-2.37ZM104.89,372.41l-1.31-4.87h-.12l-1.31,4.87h2.75Z"/>
      </g>
      <line class="cls-5" x1="251.32" y1="141" x2="251.32" y2="97.54"/>
      <line class="cls-5" x1="251.32" y1="238.42" x2="251.32" y2="194.96"/>
      <line class="cls-5" x1="251.32" y1="335.8" x2="251.32" y2="292.35"/>
      <rect class="cls-19" x="376.48" y="44.14" width="9.39" height="332.78"/>
      <g>
        <path class="cls-9" d="M402.24,271.59c-.03.39-.08.74-.16,1.06l-1.31-.16c.15-.93.22-1.7.22-2.31,0-.73-.07-1.26-.21-1.59-.14-.33-.37-.5-.69-.5-.21,0-.37.06-.48.17-.11.11-.2.29-.26.54l-.42,1.67c-.12.46-.25.84-.41,1.11s-.35.49-.59.62c-.24.14-.54.21-.9.21-.53,0-.96-.13-1.29-.39-.33-.26-.57-.66-.73-1.2-.16-.54-.23-1.25-.23-2.13,0-.67.05-1.3.14-1.91l1.26.15c-.06.69-.1,1.29-.1,1.8,0,.77.07,1.32.21,1.66.14.34.37.51.68.51.2,0,.35-.06.45-.18s.19-.32.26-.6l.33-1.34c.13-.52.28-.94.45-1.26s.39-.56.65-.71.58-.23.96-.23c.52,0,.95.12,1.28.38.33.25.57.64.72,1.17.16.53.23,1.21.23,2.05,0,.56-.02,1.03-.05,1.42Z"/>
        <path class="cls-9" d="M392.44,259.9l2,1.71v.88l-2-1.23v-1.36ZM398.98,263.8c1.67-.03,2.35-1.09,2.35-2.33,0-.88-.15-1.42-.35-1.88l.88-.21c.2.43.42,1.18.42,2.25,0,2.09-1.37,3.33-3.42,3.33s-3.66-1.21-3.66-3.18c0-2.21,1.95-2.8,3.19-2.8.25,0,.45.03.57.04v4.76ZM398.1,260.19c-.79-.01-2,.32-2,1.71,0,1.25,1.15,1.79,2,1.89v-3.6Z"/>
        <path class="cls-9" d="M401.9,252.64c.17.32.39,1.04.39,1.95,0,2.04-1.39,3.38-3.46,3.38s-3.6-1.43-3.6-3.64c0-.73.18-1.37.35-1.71l.95.28c-.17.29-.32.76-.32,1.43,0,1.55,1.15,2.39,2.56,2.39,1.57,0,2.54-1.01,2.54-2.35,0-.7-.18-1.16-.34-1.51l.92-.21Z"/>
        <path class="cls-9" d="M400.3,245.53c.7,0,1.32-.01,1.85-.06v1.09l-1.11.07v.03c.55.32,1.26,1.04,1.26,2.24,0,1.06-.59,2.34-2.97,2.34h-3.96v-1.23h3.75c1.29,0,2.16-.39,2.16-1.51,0-.83-.57-1.4-1.12-1.62-.18-.07-.41-.11-.63-.11h-4.16v-1.23h4.93Z"/>
        <path class="cls-9" d="M397.49,243.49c-.8,0-1.49.01-2.12.06v-1.08l1.33-.04v-.06c-.91-.31-1.48-1.05-1.48-1.88,0-.14.01-.24.04-.35h1.16c-.03.13-.04.25-.04.42,0,.87.66,1.48,1.58,1.65.17.03.36.06.57.06h3.61v1.22h-4.66Z"/>
        <path class="cls-9" d="M393.47,237.48c.42-.01.76.29.76.78,0,.43-.34.74-.76.74s-.77-.32-.77-.77.34-.76.77-.76ZM402.15,238.86h-6.78v-1.23h6.78v1.23Z"/>
        <path class="cls-9" d="M393.42,234.1h1.95v-1.76h.94v1.76h3.66c.84,0,1.32-.24,1.32-.92,0-.32-.04-.56-.08-.71l.92-.06c.1.24.17.62.17,1.09,0,.57-.18,1.04-.52,1.33-.36.35-.97.48-1.77.48h-3.7v1.05h-.94v-1.05h-1.62l-.32-1.21Z"/>
        <path class="cls-9" d="M392.44,226.44l2,1.71v.88l-2-1.23v-1.36ZM398.98,230.34c1.67-.03,2.35-1.09,2.35-2.33,0-.88-.15-1.42-.35-1.88l.88-.21c.2.43.42,1.18.42,2.25,0,2.09-1.37,3.33-3.42,3.33s-3.66-1.21-3.66-3.18c0-2.21,1.95-2.8,3.19-2.8.25,0,.45.03.57.04v4.76ZM398.1,226.73c-.79-.01-2,.32-2,1.71,0,1.25,1.15,1.79,2,1.89v-3.6Z"/>
        <path class="cls-9" d="M392.44,219.38l2-1.22v.87l-2,1.71v-1.36ZM402.15,217.29l-.85.1v.04c.53.38,1.01,1.11,1.01,2.07,0,1.37-.97,2.07-1.95,2.07-1.64,0-2.54-1.46-2.52-4.08h-.14c-.56,0-1.57.15-1.57,1.54,0,.63.2,1.29.5,1.76l-.81.28c-.36-.56-.6-1.37-.6-2.23,0-2.07,1.42-2.58,2.77-2.58h2.54c.59,0,1.16-.03,1.62-.11v1.12ZM398.69,217.48c-.03,1.34.21,2.87,1.53,2.87.8,0,1.18-.53,1.18-1.16,0-.88-.56-1.44-1.13-1.64-.13-.04-.27-.07-.39-.07h-1.18Z"/>
        <path class="cls-9" d="M402.15,207.58l-.85.1v.04c.53.38,1.01,1.11,1.01,2.07,0,1.37-.97,2.07-1.95,2.07-1.64,0-2.54-1.46-2.52-4.08h-.14c-.56,0-1.57.15-1.57,1.54,0,.63.2,1.29.5,1.76l-.81.28c-.36-.56-.6-1.37-.6-2.23,0-2.07,1.42-2.58,2.77-2.58h2.54c.59,0,1.16-.03,1.62-.11v1.12ZM398.69,207.76c-.03,1.34.21,2.87,1.53,2.87.8,0,1.18-.53,1.18-1.16,0-.88-.56-1.44-1.13-1.64-.13-.04-.27-.07-.39-.07h-1.18Z"/>
        <path class="cls-9" d="M401.9,199.75c.17.32.39,1.04.39,1.95,0,2.04-1.39,3.38-3.46,3.38s-3.6-1.43-3.6-3.64c0-.73.18-1.37.35-1.71l.95.28c-.17.29-.32.76-.32,1.43,0,1.55,1.15,2.39,2.56,2.39,1.57,0,2.54-1.01,2.54-2.35,0-.7-.18-1.16-.34-1.51l.92-.21Z"/>
        <path class="cls-9" d="M401.9,193.56c.17.32.39,1.04.39,1.95,0,2.04-1.39,3.38-3.46,3.38s-3.6-1.43-3.6-3.64c0-.73.18-1.37.35-1.71l.95.28c-.17.29-.32.76-.32,1.43,0,1.55,1.15,2.39,2.56,2.39,1.57,0,2.54-1.01,2.54-2.35,0-.7-.18-1.16-.34-1.51l.92-.21Z"/>
        <path class="cls-9" d="M397.49,192.12c-.8,0-1.49.01-2.12.06v-1.08l1.33-.04v-.06c-.91-.31-1.48-1.05-1.48-1.88,0-.14.01-.24.04-.35h1.16c-.03.13-.04.25-.04.42,0,.87.66,1.48,1.58,1.65.17.03.36.06.57.06h3.61v1.22h-4.66Z"/>
        <path class="cls-9" d="M398.7,181.55c2.51,0,3.6,1.74,3.6,3.38,0,1.83-1.34,3.25-3.49,3.25-2.27,0-3.6-1.48-3.6-3.36s1.42-3.26,3.49-3.26ZM398.77,186.93c1.49,0,2.61-.85,2.61-2.06s-1.11-2.06-2.63-2.06c-1.15,0-2.6.57-2.6,2.03s1.34,2.09,2.63,2.09Z"/>
        <path class="cls-9" d="M392.44,178.96l2-1.34v.95l-1.33.81v.03l1.33.81v.91l-2-1.32v-.85ZM402.15,180h-6.78v-1.23h6.78v1.23Z"/>
        <path class="cls-9" d="M393.42,175.24h1.95v-1.76h.94v1.76h3.66c.84,0,1.32-.24,1.32-.92,0-.32-.04-.56-.08-.71l.92-.06c.1.24.17.62.17,1.09,0,.57-.18,1.04-.52,1.33-.36.35-.97.48-1.77.48h-3.7v1.05h-.94v-1.05h-1.62l-.32-1.21Z"/>
        <path class="cls-9" d="M397.49,172.09c-.8,0-1.49.01-2.12.06v-1.08l1.33-.04v-.06c-.91-.31-1.48-1.05-1.48-1.88,0-.14.01-.24.04-.35h1.16c-.03.13-.04.25-.04.42,0,.87.66,1.48,1.58,1.65.17.03.36.06.57.06h3.61v1.22h-4.66Z"/>
        <path class="cls-9" d="M398.98,166.97c1.67-.03,2.35-1.09,2.35-2.33,0-.88-.15-1.42-.35-1.88l.88-.21c.2.43.42,1.18.42,2.25,0,2.09-1.37,3.33-3.42,3.33s-3.66-1.21-3.66-3.18c0-2.21,1.95-2.8,3.19-2.8.25,0,.45.03.57.04v4.76ZM398.1,163.35c-.79-.01-2,.32-2,1.71,0,1.25,1.15,1.79,2,1.89v-3.6Z"/>
      </g>
    </g>
    <g id="logso">
      <g>
        <path class="cls-16" d="M212.26,178.56l-1.9-23.23,22.7.05-2.01,23.18-9.25,2.68-9.54-2.68Z"/>
        <path class="cls-20" d="M221.8,179v-21.45l9.35.03-1.67,19.19-7.68,2.23Z"/>
        <path class="cls-3" d="M228.57,162.9l.26-2.84h-14.38l.79,8.69h9.92l-.39,3.71-3.18.86-3.23-.93-.17-2.21h-2.85l.39,4.52,5.86,1.64,5.9-1.64.79-8.82h-10.42l-.3-2.98h10.98Z"/>
      </g>
      <g>
        <path class="cls-11" d="M241.63,178.56l-1.9-23.23,22.7.05-2.01,23.18-9.25,2.68-9.54-2.68Z"/>
        <path class="cls-17" d="M251.16,179v-21.45l9.35.03-1.67,19.19-7.68,2.23Z"/>
        <path class="cls-3" d="M258.19,160.28h-14.38l.39,2.8h6.82l-6.71,2.88.39,2.71h9.89l-.36,3.79-3.35.65-3.04-.78-.23-2.15h-2.79l.37,4.47,5.98,1.67,5.73-1.82.73-8.74h-6.06l6.61-2.74v-2.74Z"/>
      </g>
      <g>
        <path class="cls-12" d="M270.99,178.56l-1.9-23.23,22.7.05-2.01,23.18-9.25,2.68-9.54-2.68Z"/>
        <path class="cls-4" d="M280.53,179v-21.45l9.35.03-1.67,19.19-7.68,2.23Z"/>
        <path class="cls-3" d="M279.53,160.09h-2.47v14.28l-1.92-.37v-1.92l-2.29-.37v4.3l6.68,1.74v-17.67ZM281.38,160.09h6.84l-.46,2.74h-3.77v4.49h3.77l-.46,9.06-5.93,1.37v-2.84l4-1.37.23-3.75-4.24.61v-10.32Z"/>
      </g>
      <g>
        <path class="cls-6" d="M216.02,273.27s-1.19.69.85.93c2.47.28,3.74.24,6.47-.27,0,0,.72.45,1.72.84-6.11,2.62-13.84-.15-9.03-1.49M215.28,269.85s-1.34.99.71,1.2c2.64.27,4.73.3,8.34-.4,0,0,.5.51,1.29.78-7.39,2.16-15.62.17-10.33-1.59"/>
        <path class="cls-18" d="M221.57,264.05c1.51,1.73-.4,3.29-.4,3.29,0,0,3.82-1.97,2.07-4.45-1.64-2.31-2.9-3.45,3.91-7.4,0,0-10.69,2.67-5.58,8.55"/>
        <path class="cls-6" d="M229.66,275.8s.88.73-.97,1.29c-3.53,1.07-14.69,1.39-17.79.04-1.11-.48.98-1.16,1.63-1.3.69-.15,1.08-.12,1.08-.12-1.24-.87-8.01,1.71-3.44,2.45,12.46,2.02,22.72-.91,19.49-2.37M216.6,266.31s-5.68,1.35-2.01,1.84c1.55.21,4.63.16,7.51-.08,2.35-.2,4.71-.62,4.71-.62,0,0-.83.35-1.43.76-5.76,1.52-16.9.81-13.69-.74,2.71-1.31,4.91-1.16,4.91-1.16M226.78,272c5.86-3.04,3.15-5.97,1.26-5.58-.46.1-.67.18-.67.18,0,0,.17-.27.5-.39,3.74-1.32,6.62,3.88-1.21,5.94,0,0,.09-.08.12-.15"/>
        <path class="cls-18" d="M223.25,249.12s3.24,3.25-3.08,8.24c-5.07,4-1.16,6.29,0,8.89-2.96-2.67-5.13-5.02-3.67-7.21,2.14-3.21,8.06-4.77,6.75-9.92"/>
        <path class="cls-6" d="M217.17,280.25c5.62.36,14.26-.2,14.46-2.86,0,0-.39,1.01-4.65,1.81-4.8.9-10.72.8-14.23.22,0,0,.72.59,4.41.83"/>
      </g>
      <g>
        <path class="cls-14" d="M282.3,276.23c-.31,0-.61-.08-.88-.24l-2.81-1.66c-.42-.23-.22-.32-.08-.37.45-.14.87-.33,1.27-.57.07-.03.15-.03.21.02l2.16,1.28c.08.04.18.04.26,0l8.42-4.86c.08-.05.13-.13.13-.23v-9.72c0-.09-.05-.18-.13-.23l-8.42-4.86c-.08-.05-.18-.05-.26,0l-8.42,4.86c-.08.05-.13.14-.13.23v9.72c0,.09.05.18.13.22l2.31,1.33c1.25.63,2.02-.11,2.02-.85v-9.6c0-.14.11-.25.25-.25h1.07c.14,0,.25.11.25.25h0v9.6c0,1.67-.91,2.63-2.49,2.63-.68.01-1.36-.17-1.94-.53l-2.21-1.27c-.55-.32-.88-.9-.88-1.54v-9.72c0-.63.34-1.22.88-1.54l8.42-4.86c.55-.3,1.22-.3,1.77,0l8.42,4.86c.55.32.88.9.88,1.53v9.72c0,.63-.34,1.22-.88,1.54l-8.42,4.86c-.27.16-.57.24-.88.24h0Z"/>
        <path class="cls-14" d="M280.7,266.34c0-.14.11-.25.25-.25h1.09c.12,0,.22.09.24.21.16,1.11.66,1.67,2.88,1.67,1.77,0,2.53-.4,2.53-1.34,0-.54-.21-.95-2.97-1.22-2.3-.23-3.73-.74-3.73-2.58,0-1.7,1.43-2.71,3.83-2.71,2.7,0,4.03.94,4.2,2.95.01.14-.09.25-.23.26,0,0-.01,0-.02,0h-1.1c-.11,0-.21-.08-.24-.19-.26-1.17-.9-1.54-2.63-1.54-1.94,0-2.16.67-2.16,1.18,0,.61.27.79,2.88,1.14,2.59.34,3.82.83,3.82,2.65s-1.53,2.89-4.2,2.89c-3.69,0-4.46-1.69-4.46-3.11h0Z"/>
      </g>
      <g>
        <path class="cls-2" d="M251.12,252.1c-6.45,0-6.05,2.8-6.05,2.8v2.9h6.16v.87h-8.6s-4.13-.47-4.13,6.04,3.6,6.28,3.6,6.28h2.15v-3.02s-.12-3.6,3.55-3.6h6.11s3.43.06,3.43-3.32v-5.57s.52-3.37-6.22-3.37ZM247.73,254.05c.61,0,1.11.49,1.11,1.11,0,0,0,0,0,0,0,.61-.49,1.11-1.11,1.11,0,0,0,0,0,0-.61,0-1.11-.49-1.11-1.11,0,0,0,0,0,0,0-.61.49-1.11,1.11-1.11,0,0,0,0,0,0Z"/>
        <path class="cls-7" d="M251.3,277.38c6.45,0,6.05-2.8,6.05-2.8v-2.9h-6.16v-.87h8.6s4.13.47,4.13-6.04-3.6-6.28-3.6-6.28h-2.15v3.02s.12,3.6-3.55,3.6h-6.11s-3.43-.06-3.43,3.32v5.57s-.52,3.37,6.22,3.37h0ZM254.7,275.43c-.61,0-1.11-.49-1.11-1.11h0c0-.61.49-1.11,1.11-1.11h0c.61,0,1.11.49,1.11,1.11h0c0,.61-.49,1.11-1.11,1.11h0Z"/>
      </g>
    </g>
  </g>
</svg>