<?xml version="1.0" encoding="UTF-8"?>
<svg xmlns="http://www.w3.org/2000/svg" version="1.1" xmlns:xlink="http://www.w3.org/1999/xlink" viewBox="0 0 423.63 400.61">
  <defs>
    <style>
      .cls-1 {
        opacity: .03;
      }

      .cls-2 {
        fill: url(#linear-gradient-2);
      }

      .cls-3 {
        fill: #fff;
      }

      .cls-4 {
        fill: #fede21;
      }

      .cls-5 {
        font-size: 7px;
      }

      .cls-5, .cls-6 {
        font-family: CascadiaCode, 'Cascadia Code';
      }

      .cls-5, .cls-7 {
        fill: #7a7fbd;
      }

      .cls-8 {
        fill: none;
        stroke: #5ac5c4;
        stroke-miterlimit: 10;
        stroke-width: 3px;
      }

      .cls-9 {
        fill: #5482a2;
      }

      .cls-10 {
        fill: url(#linear-gradient-3);
      }

      .cls-6 {
        font-size: 14px;
      }

      .cls-6, .cls-11 {
        fill: #a09f9f;
      }

      .cls-12 {
        fill: #f7f7f7;
      }

      .cls-13 {
        fill: #1e74bb;
      }

      .cls-14 {
        fill: #e8c92f;
      }

      .cls-15 {
        fill: #7d7d7d;
      }

      .cls-16 {
        fill: #4dbb80;
      }

      .cls-17 {
        fill: #e35126;
      }

      .cls-18 {
        fill: #1e88c7;
      }

      .cls-19 {
        fill: #e67125;
      }

      .cls-20 {
        fill: url(#linear-gradient);
      }

      .cls-21 {
        fill: #ef672b;
      }

      .cls-22 {
        fill: #878787;
      }
    </style>
    <linearGradient id="linear-gradient" x1="367.52" y1="31.71" x2="367.52" y2="347.88" gradientUnits="userSpaceOnUse">
      <stop offset="0" stop-color="#03aa4b"/>
      <stop offset=".09" stop-color="#0da349"/>
      <stop offset=".25" stop-color="#279344"/>
      <stop offset=".46" stop-color="#53783d"/>
      <stop offset=".7" stop-color="#905233"/>
      <stop offset=".97" stop-color="#dd2326"/>
      <stop offset="1" stop-color="#e61e25"/>
    </linearGradient>
    <linearGradient id="linear-gradient-2" x1="-190.69" y1="570.34" x2="-190.69" y2="570.33" gradientTransform="translate(352868.49 1057303.15) scale(1849.27 -1853.39)" gradientUnits="userSpaceOnUse">
      <stop offset="0" stop-color="#3a7fb9"/>
      <stop offset="1" stop-color="#376a95"/>
    </linearGradient>
    <linearGradient id="linear-gradient-3" x1="-191.04" y1="570.67" x2="-191.03" y2="570.67" gradientTransform="translate(353512.9 1057930.6) scale(1849.27 -1853.39)" gradientUnits="userSpaceOnUse">
      <stop offset="0" stop-color="#fee053"/>
      <stop offset="1" stop-color="#ffc433"/>
    </linearGradient>
  </defs>
  <!-- Generator: Adobe Illustrator 28.6.0, SVG Export Plug-In . SVG Version: 1.2.0 Build 709)  -->
  <g>
    <g id="bg">
      <rect class="cls-12" width="423.63" height="400.61" rx="15.29" ry="15.29" transform="translate(423.63 400.61) rotate(180)"/>
      <rect class="cls-1" x="2.45" y="100.71" width="423.63" height="299.9" rx="15.29" ry="15.29" transform="translate(428.54 501.32) rotate(180)"/>
      <rect class="cls-1" x="2.45" y="198.09" width="423.63" height="202.52" rx="15.29" ry="15.29" transform="translate(428.54 598.71) rotate(180)"/>
      <rect class="cls-1" x="2.45" y="295.51" width="423.63" height="105.1" rx="15.29" ry="15.29" transform="translate(428.54 696.12) rotate(180)"/>
    </g>
    <g id="base">
      <g>
        <g>
          <path class="cls-7" d="M265.14,22.98h-6.59c-1.39,0-2.52,1.13-2.52,2.52v22.2c0,1.36,1.11,2.46,2.46,2.46h6.7c1.36,0,2.46-1.11,2.46-2.46v-22.2c0-1.39-1.13-2.52-2.52-2.52h0ZM265.98,47.7c0,.43-.35.78-.78.78h-6.7c-.43,0-.78-.35-.78-.78v-22.2c0-.46.37-.83.83-.83h6.59c.46,0,.83.37.83.83v22.2h0Z"/>
          <path class="cls-7" d="M251.99,44.42v-18.35c0-.31-.25-.56-.56-.56h-31c-.31,0-.56.25-.56.56v18.35c0,.31.25.56.56.56h31c.31,0,.56-.25.56-.56ZM250.87,43.86h-29.88v-17.23h29.88v17.23Z"/>
          <path class="cls-7" d="M230.07,48.48h-2.3c-.46,0-.84.38-.84.84s.38.84.84.84h16.33c.46,0,.84-.38.84-.84s-.38-.84-.84-.84h-2.3l-.4-.97h10.66c1.36,0,2.46-1.11,2.46-2.46v-19.6c0-1.36-1.11-2.46-2.46-2.46h-32.25c-1.36,0-2.46,1.11-2.46,2.46v19.6c0,1.36,1.11,2.46,2.46,2.46h10.66l-.4.97h0ZM239.97,48.48h-8.08l.4-.97h7.28l.4.97ZM219.03,45.04v-19.6c0-.43.35-.78.78-.78h32.25c.43,0,.78.35.78.78v19.6c0,.43-.35.78-.78.78h-32.25c-.43,0-.78-.35-.78-.78h0Z"/>
          <path class="cls-7" d="M264.92,25.27h-6.15c-.31,0-.56.25-.56.56v13.3c0,.31.25.56.56.56h6.15c.31,0,.56-.25.56-.56v-13.3c0-.31-.25-.56-.56-.56h0ZM264.36,26.39v4.32h-5.02v-4.32h5.02ZM259.34,33.33v-1.5h5.02v1.5h-5.02ZM264.36,34.45v1.5h-5.02v-1.5h5.02ZM259.34,38.57v-1.5h5.02v1.5h-5.02Z"/>
          <path class="cls-7" d="M260.05,40.66c-.15,0-.29.06-.4.17-.1.1-.16.25-.16.4s.06.29.16.4.25.16.4.16.29-.06.4-.16c.1-.11.17-.25.17-.4s-.06-.29-.17-.4c-.1-.11-.25-.17-.4-.17Z"/>
          <path class="cls-7" d="M261.85,40.66c-.15,0-.29.06-.4.17s-.16.25-.16.4.06.29.16.4c.1.1.25.16.4.16s.29-.06.4-.16c.1-.1.17-.25.17-.4s-.06-.29-.17-.4c-.1-.1-.25-.17-.4-.17Z"/>
          <path class="cls-7" d="M263.64,40.66c-.15,0-.29.06-.4.17-.1.1-.16.25-.16.4s.06.29.16.4.25.16.4.16.29-.06.4-.16c.1-.1.17-.25.17-.4s-.06-.29-.17-.4c-.1-.1-.25-.17-.4-.17Z"/>
          <path class="cls-7" d="M249.14,51.32h-26.42c-.46,0-.84.38-.84.84v10.85c0,.46.38.84.84.84h26.42c.46,0,.84-.38.84-.84v-10.85c0-.46-.38-.84-.84-.84ZM248.3,62.18h-24.74v-9.17h24.74v9.17h0Z"/>
          <path class="cls-7" d="M254.37,52.75c-1.91,0-3.46,1.55-3.46,3.46v2.39c0,1.91,1.55,3.46,3.46,3.46s3.46-1.55,3.46-3.46v-2.39c0-1.91-1.55-3.46-3.46-3.46ZM256.05,55.65h-1.12v-1.12c.53.18.95.59,1.12,1.12ZM253.81,54.52v1.12h-1.12c.18-.53.6-.95,1.12-1.12ZM254.37,60.38c-.98,0-1.78-.8-1.78-1.78v-1.83h3.56v1.83c0,.98-.8,1.78-1.78,1.78Z"/>
          <path class="cls-7" d="M224.96,61.26h21.93c.31,0,.56-.25.56-.56v-6.21c0-.31-.25-.56-.56-.56h-21.93c-.31,0-.56.25-.56.56v6.21c0,.31.25.56.56.56h0ZM225.53,59.19h1.62v.95h-1.62v-.95ZM230.6,57.12v.95h-1.62v-.95h1.62ZM244.31,57.12v.95h-1.62v-.95h1.62ZM241.57,57.12v.95h-1.62v-.95h1.62ZM238.83,57.12v.95h-1.62v-.95h1.62ZM236.09,57.12v.95h-1.62v-.95h1.62ZM233.35,57.12v.95h-1.62v-.95h1.62ZM229.89,59.19v.95h-1.62v-.95h1.62ZM231.01,59.19h1.62v.95h-1.62v-.95ZM233.75,59.19h1.62v.95h-1.62v-.95ZM236.49,59.19h1.62v.95h-1.62v-.95ZM239.23,59.19h1.62v.95h-1.62v-.95ZM241.97,59.19h1.62v.95h-1.62v-.95h0ZM245.43,57.12h.9v.95h-.9v-.95h0ZM241.97,55.99v-.95h1.62v.95h-1.62ZM240.85,55.99h-1.62v-.95h1.62v.95ZM238.11,55.99h-1.62v-.95h1.62v.95h0ZM235.37,55.99h-1.62v-.95h1.62v.95ZM232.63,55.99h-1.62v-.95h1.62v.95ZM229.89,55.99h-1.62v-.95h1.62v.95h0ZM227.86,57.12v.95h-2.34v-.95h2.34ZM244.71,60.14v-.95h1.62v.95h-1.62ZM246.33,55.99h-1.62v-.95h1.62v.95ZM227.14,55.05v.95h-1.62v-.95h1.62Z"/>
        </g>
        <text class="cls-5" transform="translate(223.62 73.71)"><tspan x="0" y="0">Client</tspan></text>
      </g>
      <g>
        <g>
          <g>
            <path class="cls-7" d="M253.76,329.68h-32.51c-.67,0-1.22.54-1.22,1.22v8.12c0,.67.54,1.22,1.22,1.22h32.51c.67,0,1.22-.54,1.22-1.22v-8.12c0-.67-.54-1.22-1.22-1.22ZM253.25,338.47h-31.4v-7.04h31.4v7.04Z"/>
            <path d="M247.67,334.14c.45,0,.81.36.81.81,0,0,0,0,0,0,0-.45-.37-.82-.82-.82s-.82.37-.82.82c0,0,0,0,0,0,0-.45.37-.81.82-.81Z"/>
            <path class="cls-7" d="M247.67,336.58c.9,0,1.63-.73,1.63-1.63s-.73-1.63-1.63-1.63-1.63.73-1.63,1.63.73,1.63,1.63,1.63ZM246.86,334.95c0-.45.37-.82.82-.82s.82.37.82.82c0,0,0,0,0,0,0,0,0,0,0,0,0,.45-.37.82-.82.82s-.82-.37-.82-.82c0,0,0,0,0,0,0,0,0,0,0,0Z"/>
            <path class="cls-3" d="M247.67,335.77c.45,0,.82-.37.82-.82,0,0,0,0,0,0,0,.45-.37.81-.82.81s-.81-.36-.81-.81c0,0,0,0,0,0,0,.45.37.82.82.82Z"/>
          </g>
          <g>
            <path class="cls-7" d="M253.76,342.2h-32.51c-.67,0-1.22.54-1.22,1.22v8.12c0,.67.54,1.22,1.22,1.22h32.51c.67,0,1.22-.54,1.22-1.22v-8.12c0-.67-.54-1.22-1.22-1.22ZM253.25,350.99h-31.4v-7.04h31.4v7.04Z"/>
            <path d="M247.67,346.66c.45,0,.81.36.81.81,0,0,0,0,0,0,0-.45-.37-.82-.82-.82s-.82.37-.82.82c0,0,0,0,0,0,0-.45.37-.81.82-.81Z"/>
            <path class="cls-7" d="M247.67,349.1c.9,0,1.63-.73,1.63-1.63s-.73-1.63-1.63-1.63-1.63.73-1.63,1.63.73,1.63,1.63,1.63ZM246.86,347.47c0-.45.37-.82.82-.82s.82.37.82.82c0,0,0,0,0,0,0,0,0,0,0,0,0,.45-.37.82-.82.82s-.82-.37-.82-.82c0,0,0,0,0,0,0,0,0,0,0,0Z"/>
            <path class="cls-3" d="M247.67,348.29c.45,0,.82-.37.82-.82,0,0,0,0,0,0,0,.45-.37.81-.82.81s-.81-.36-.81-.81c0,0,0,0,0,0,0,.45.37.82.82.82Z"/>
          </g>
          <g>
            <path class="cls-7" d="M253.76,354.72h-32.51c-.67,0-1.22.54-1.22,1.22v8.12c0,.67.54,1.22,1.22,1.22h32.51c.67,0,1.22-.54,1.22-1.22v-8.12c0-.67-.54-1.22-1.22-1.22ZM253.25,363.51h-31.4v-7.04h31.4v7.04Z"/>
            <path d="M247.67,359.18c.45,0,.81.36.81.81,0,0,0,0,0,0,0-.45-.37-.82-.82-.82s-.82.37-.82.82c0,0,0,0,0,0,0-.45.37-.81.82-.81Z"/>
            <path class="cls-7" d="M247.67,361.63c.9,0,1.63-.73,1.63-1.63s-.73-1.63-1.63-1.63-1.63.73-1.63,1.63.73,1.63,1.63,1.63ZM246.86,359.99c0-.45.37-.82.82-.82s.82.37.82.82c0,0,0,0,0,0,0,0,0,0,0,0,0,.45-.37.82-.82.82s-.82-.37-.82-.82c0,0,0,0,0,0,0,0,0,0,0,0Z"/>
            <path class="cls-3" d="M247.67,360.81c.45,0,.82-.37.82-.82,0,0,0,0,0,0,0,.45-.37.81-.82.81s-.81-.36-.81-.81c0,0,0,0,0,0,0,.45.37.82.82.82Z"/>
          </g>
        </g>
        <text class="cls-5" transform="translate(225.2 374.31)"><tspan x="0" y="0">Server</tspan></text>
      </g>
      <path class="cls-7" d="M286.46,172.31v-37.67c0-.64-.52-1.15-1.15-1.15h-95.3c-.64,0-1.15.52-1.15,1.15v37.67c0,.64.52,1.15,1.15,1.15h95.3c.64,0,1.15-.52,1.15-1.15ZM284.16,171.15h-93v-35.37h93v35.37Z"/>
      <path class="cls-7" d="M286.1,270.4v-37.67c0-.64-.52-1.15-1.15-1.15h-95.3c-.64,0-1.15.52-1.15,1.15v37.67c0,.64.52,1.15,1.15,1.15h95.3c.64,0,1.15-.52,1.15-1.15ZM283.8,269.25h-93v-35.37h93v35.37Z"/>
      <text class="cls-6" transform="translate(32.46 53.59)"><tspan x="0" y="0">PLATEFORMES</tspan></text>
      <g>
        <path class="cls-11" d="M49.8,149.48h2.16v1.27h-6.03v-1.27h2.42v-7.1l-2.28.52v-1.31l2.28-.55h1.45v8.44Z"/>
        <path class="cls-11" d="M55.09,150.84c-.39-.03-.74-.08-1.06-.16l.16-1.31c.93.15,1.7.22,2.31.22.73,0,1.26-.07,1.59-.21.33-.14.5-.37.5-.69,0-.21-.06-.37-.17-.48-.11-.11-.29-.2-.54-.26l-1.67-.42c-.46-.12-.84-.25-1.11-.41s-.49-.35-.62-.59c-.14-.24-.21-.54-.21-.9,0-.53.13-.96.39-1.29.26-.33.66-.57,1.2-.73.54-.16,1.25-.23,2.13-.23.67,0,1.3.05,1.91.14l-.15,1.26c-.69-.06-1.29-.1-1.8-.1-.77,0-1.32.07-1.66.21-.34.14-.51.37-.51.68,0,.2.06.35.18.45s.32.19.6.26l1.34.33c.52.13.94.28,1.26.45s.56.39.71.65.23.58.23.96c0,.52-.12.95-.38,1.28-.25.33-.64.57-1.17.72-.53.16-1.21.23-2.05.23-.56,0-1.03-.02-1.42-.05Z"/>
        <path class="cls-11" d="M68.42,150.73c-.64.11-1.28.16-1.9.16-.74,0-1.33-.1-1.79-.3s-.79-.51-1-.93-.32-.97-.32-1.64v-3.31h-1.82v-1.2h1.82v-2.19h1.45v2.19h3.29v1.2h-3.29v3.24c0,.58.14,1,.42,1.25.28.26.74.39,1.38.39.21,0,.43-.01.67-.03.24-.02.55-.06.93-.1l.16,1.27Z"/>
        <path class="cls-11" d="M84.82,150.73c-.64.11-1.28.16-1.9.16-.74,0-1.33-.1-1.79-.3s-.79-.51-1-.93-.32-.97-.32-1.64v-3.31h-1.82v-1.2h1.82v-2.19h1.45v2.19h3.29v1.2h-3.29v3.24c0,.58.14,1,.42,1.25.28.26.74.39,1.38.39.21,0,.43-.01.67-.03.24-.02.55-.06.93-.1l.16,1.27Z"/>
        <path class="cls-11" d="M91.09,149.56h2.23v1.19h-6.44v-1.19h2.76v-4.85h-2.35v-1.2h3.8v6.06ZM89.77,142.22c-.16-.09-.28-.21-.37-.37s-.14-.32-.14-.51.05-.35.14-.51.21-.28.37-.37.32-.14.51-.14.35.05.51.14.28.21.37.37.14.32.14.51-.05.35-.14.51-.21.28-.37.37-.32.14-.51.14-.35-.05-.51-.14Z"/>
        <path class="cls-11" d="M101.22,147.77h-4.89c.13.6.42,1.06.86,1.37s1.03.47,1.76.47c.56,0,1.15-.06,1.78-.19l.18,1.27c-.67.13-1.38.19-2.12.19-.83,0-1.53-.15-2.1-.44-.58-.29-1.02-.72-1.32-1.28-.3-.56-.45-1.25-.45-2.05s.13-1.46.38-2.02.63-.99,1.12-1.29c.49-.3,1.08-.44,1.77-.44.98,0,1.74.3,2.28.9s.8,1.46.8,2.58c0,.33-.01.64-.04.93ZM99.95,146.66c0-.65-.15-1.15-.46-1.5-.31-.35-.74-.53-1.29-.53s-1.01.18-1.34.53-.53.85-.59,1.5h3.68Z"/>
        <path class="cls-11" d="M109.15,143.65c.31.19.54.48.69.88.15.4.22.92.22,1.56h-1.44c0-.52-.08-.9-.24-1.14-.16-.23-.41-.35-.76-.35-.61,0-1.06.26-1.37.78-.31.52-.46,1.27-.46,2.26v1.91h1.78v1.2h-4.84v-1.2h1.61v-4.84h-1.34v-1.2h2.52l.25,1.86h.16c.04-.67.23-1.17.56-1.5s.81-.5,1.44-.5c.5,0,.91.09,1.22.28Z"/>
        <path class="cls-11" d="M34.31,158.23c.56.25.98.63,1.27,1.12.29.49.43,1.08.43,1.78s-.14,1.34-.43,1.85c-.29.51-.71.9-1.27,1.17-.56.27-1.22.4-2,.4h-1.49v3.01h-1.37v-9.71h2.86c.78,0,1.45.13,2,.38ZM33.99,162.73c.4-.35.59-.83.59-1.46,0-.67-.2-1.2-.59-1.57s-.96-.55-1.67-.55h-1.49v4.1h1.49c.72,0,1.28-.17,1.67-.52Z"/>
        <path class="cls-11" d="M42.72,167.55l-1.76-3.69h-2.08v3.69h-1.37v-9.71h3.35c.67,0,1.24.12,1.71.35.47.23.83.56,1.08,1,.25.44.37.97.37,1.59,0,.69-.14,1.28-.42,1.76s-.69.83-1.22,1.05l2,3.96h-1.65ZM38.87,162.56h1.98c.54,0,.96-.14,1.27-.43.3-.29.46-.69.46-1.21,0-.57-.15-1-.45-1.31s-.72-.46-1.27-.46h-1.98v3.42Z"/>
        <path class="cls-11" d="M47.23,159.14v2.9h3.83v1.3h-3.83v2.91h5.06v1.3h-6.43v-9.71h6.43v1.3h-5.06Z"/>
        <path class="cls-11" d="M59.62,163.45c.36.43.54.97.54,1.6,0,.9-.29,1.58-.86,2.03-.57.45-1.44.68-2.6.68s-2.06-.18-2.88-.53l.18-1.33c1.01.4,1.95.6,2.82.6.63,0,1.11-.12,1.42-.35.31-.24.47-.59.47-1.07,0-.58-.3-1-.89-1.27l-1.68-.77c-.68-.31-1.2-.68-1.54-1.11s-.51-.95-.51-1.56c0-.56.12-1.04.36-1.44.24-.4.59-.7,1.05-.91s1.01-.31,1.66-.31c.58,0,1.08.09,1.5.27.42.18.73.45.95.79.22.34.32.76.32,1.25h-1.34c0-.34-.12-.6-.38-.78s-.6-.27-1.06-.27c-.51,0-.91.12-1.19.35-.28.24-.42.56-.42.99,0,.31.08.56.24.76.16.2.41.38.76.54l1.42.67c.75.35,1.3.74,1.66,1.17Z"/>
        <path class="cls-11" d="M63.63,159.14v2.9h3.83v1.3h-3.83v2.91h5.06v1.3h-6.43v-9.71h6.43v1.3h-5.06Z"/>
        <path class="cls-11" d="M75.25,157.85h1.31v9.71h-1.72l-3.01-7.18h-.14v7.18h-1.31v-9.71h1.72l3.01,7.51h.14v-7.51Z"/>
        <path class="cls-11" d="M85.24,159.14h-2.87v8.41h-1.37v-8.41h-2.87v-1.3h7.11v1.3Z"/>
        <path class="cls-11" d="M91.59,165.19h-3.45l-.64,2.37h-1.44l2.8-9.71h1.98l2.8,9.71h-1.44l-.64-2.37ZM91.24,163.89l-1.31-4.87h-.12l-1.31,4.87h2.75Z"/>
        <path class="cls-11" d="M101.64,159.14h-2.87v8.41h-1.37v-8.41h-2.87v-1.3h7.11v1.3Z"/>
        <path class="cls-11" d="M106.97,159.14v7.11h2.28v1.3h-5.91v-1.3h2.26v-7.11h-2.26v-1.3h5.91v1.3h-2.28Z"/>
        <path class="cls-11" d="M110.91,162.77c0-3.37,1.19-5.06,3.58-5.06s3.58,1.69,3.58,5.06-1.19,4.92-3.58,4.92-3.58-1.64-3.58-4.92ZM116.64,162.77c0-2.53-.72-3.8-2.15-3.8s-2.15,1.27-2.15,3.8.72,3.66,2.15,3.66,2.15-1.22,2.15-3.66Z"/>
        <path class="cls-11" d="M124.47,157.85h1.31v9.71h-1.72l-3.01-7.18h-.14v7.18h-1.31v-9.71h1.72l3.01,7.51h.14v-7.51Z"/>
      </g>
      <text class="cls-6" transform="translate(380.35 41.82)"><tspan x="0" y="0">-</tspan></text>
      <text class="cls-6" transform="translate(380.35 361.33)"><tspan x="0" y="0">+</tspan></text>
      <g>
        <path class="cls-22" d="M52.26,249.61v1.27h-6.32v-1.53c1.48-.82,2.59-1.67,3.33-2.56.74-.89,1.11-1.81,1.11-2.76,0-1.16-.57-1.74-1.7-1.74-.46,0-.81.12-1.06.35-.25.23-.37.56-.37.98h-1.46c0-.54.12-1.01.35-1.39.24-.39.58-.68,1.03-.88.45-.2.99-.3,1.62-.3,1.02,0,1.79.24,2.3.73.51.48.77,1.22.77,2.2s-.31,1.94-.94,2.84c-.62.91-1.57,1.77-2.84,2.6v.21h4.18Z"/>
        <path class="cls-22" d="M59.4,244.2c.42.46.63,1.12.63,1.97v4.72h-1.45v-4.72c0-.46-.11-.81-.34-1.06s-.55-.38-.96-.38c-1.14,0-1.71.69-1.71,2.08v4.07h-1.45v-7.25h1.31l.12,1.31h.16c.04-.49.22-.85.53-1.09.31-.24.77-.36,1.38-.36.77,0,1.36.23,1.78.7Z"/>
        <path class="cls-22" d="M68.23,240.63v10.25l-1.3.07-.12-1.19h-.16c-.05.41-.24.72-.58.94s-.79.32-1.35.32c-.61,0-1.13-.14-1.56-.43-.43-.28-.76-.7-.98-1.25-.22-.55-.34-1.22-.34-2.01s.11-1.5.34-2.07c.23-.57.56-1.01.99-1.31.43-.3.96-.45,1.57-.45s1.03.12,1.34.36c.32.24.51.6.57,1.09h.14v-4.32h1.45ZM66.78,248.56v-1.75c0-1.39-.62-2.08-1.85-2.08-.53,0-.94.23-1.23.68-.29.45-.43,1.09-.43,1.92s.14,1.42.42,1.84.7.62,1.26.62c1.22,0,1.83-.41,1.83-1.23Z"/>
        <path class="cls-22" d="M84.82,250.86c-.64.11-1.28.16-1.9.16-.74,0-1.33-.1-1.79-.3s-.79-.51-1-.93-.32-.97-.32-1.64v-3.31h-1.82v-1.2h1.82v-2.19h1.45v2.19h3.29v1.2h-3.29v3.24c0,.58.14,1,.42,1.25.28.26.74.39,1.38.39.21,0,.43-.01.67-.03.24-.02.55-.06.93-.1l.16,1.27Z"/>
        <path class="cls-22" d="M91.09,249.7h2.23v1.19h-6.44v-1.19h2.76v-4.85h-2.35v-1.2h3.8v6.06ZM89.77,242.35c-.16-.09-.28-.21-.37-.37s-.14-.32-.14-.51.05-.35.14-.51.21-.28.37-.37.32-.14.51-.14.35.05.51.14.28.21.37.37.14.32.14.51-.05.35-.14.51-.21.28-.37.37-.32.14-.51.14-.35-.05-.51-.14Z"/>
        <path class="cls-22" d="M101.22,247.9h-4.89c.13.6.42,1.06.86,1.37s1.03.47,1.76.47c.56,0,1.15-.06,1.78-.19l.18,1.27c-.67.13-1.38.19-2.12.19-.83,0-1.53-.15-2.1-.44-.58-.29-1.02-.72-1.32-1.28-.3-.56-.45-1.25-.45-2.05s.13-1.46.38-2.02.63-.99,1.12-1.29c.49-.3,1.08-.44,1.77-.44.98,0,1.74.3,2.28.9s.8,1.46.8,2.58c0,.33-.01.64-.04.93ZM99.95,246.8c0-.65-.15-1.15-.46-1.5-.31-.35-.74-.53-1.29-.53s-1.01.18-1.34.53-.53.85-.59,1.5h3.68Z"/>
        <path class="cls-22" d="M109.15,243.79c.31.19.54.48.69.88.15.4.22.92.22,1.56h-1.44c0-.52-.08-.9-.24-1.14-.16-.23-.41-.35-.76-.35-.61,0-1.06.26-1.37.78-.31.52-.46,1.27-.46,2.26v1.91h1.78v1.2h-4.84v-1.2h1.61v-4.84h-1.34v-1.2h2.52l.25,1.86h.16c.04-.67.23-1.17.56-1.5s.81-.5,1.44-.5c.5,0,.91.09,1.22.28Z"/>
        <path class="cls-22" d="M56.39,266.39v1.3h-6.43v-9.71h1.37v8.41h5.06Z"/>
        <path class="cls-22" d="M57.59,262.9c0-3.37,1.19-5.06,3.58-5.06s3.58,1.69,3.58,5.06-1.19,4.92-3.58,4.92-3.58-1.64-3.58-4.92ZM63.32,262.9c0-2.53-.72-3.8-2.15-3.8s-2.15,1.27-2.15,3.8.72,3.66,2.15,3.66,2.15-1.22,2.15-3.66Z"/>
        <path class="cls-22" d="M72.93,267.41c-.31.1-.69.19-1.16.28s-.96.13-1.5.13c-2.9,0-4.35-1.67-4.35-5,0-1.05.17-1.95.5-2.69.33-.75.81-1.31,1.45-1.7.63-.39,1.39-.58,2.28-.58,1.85,0,2.78.77,2.78,2.31h-1.34c0-.36-.13-.62-.39-.79s-.65-.26-1.17-.26c-.56,0-1.03.14-1.43.43-.39.28-.69.7-.9,1.25-.21.55-.31,1.21-.31,1.98,0,1.27.25,2.22.77,2.86.51.63,1.27.95,2.28.95.38,0,.77-.05,1.19-.14v-2.3h-1.98v-1.3h3.28v4.58Z"/>
        <path class="cls-22" d="M78.26,259.28v7.11h2.28v1.3h-5.91v-1.3h2.26v-7.11h-2.26v-1.3h5.91v1.3h-2.28Z"/>
        <path class="cls-22" d="M88.04,269.6h.7l-.14,1.23h-.56c-1.98,0-2.97-1-2.97-3.01v-.05c-1.91-.31-2.87-1.93-2.87-4.87,0-3.37,1.19-5.06,3.58-5.06s3.58,1.69,3.58,5.06c0,2.97-.98,4.6-2.94,4.88v.05c0,1.18.54,1.76,1.61,1.76ZM85.78,266.56c1.43,0,2.15-1.22,2.15-3.66s-.72-3.8-2.15-3.8-2.15,1.27-2.15,3.8.72,3.66,2.15,3.66Z"/>
        <path class="cls-22" d="M90.84,264.43v-6.45h1.37v6.45c0,.66.14,1.15.43,1.47s.74.49,1.35.49,1.03-.16,1.33-.49c.3-.33.45-.82.45-1.46v-6.45h1.37v6.45c0,1.08-.27,1.89-.8,2.44-.54.54-1.33.82-2.37.82-2.08,0-3.12-1.08-3.12-3.25Z"/>
        <path class="cls-22" d="M100.55,259.28v2.9h3.83v1.3h-3.83v2.91h5.06v1.3h-6.43v-9.71h6.43v1.3h-5.06Z"/>
      </g>
      <g>
        <path class="cls-15" d="M51.16,340.37c.35.23.61.52.8.88.19.36.28.78.28,1.25,0,.57-.13,1.07-.39,1.48-.26.41-.64.72-1.15.94s-1.11.32-1.81.32c-2.2,0-3.29-.95-3.29-2.86h1.46c0,1.07.59,1.6,1.78,1.6.62,0,1.09-.14,1.43-.42.34-.28.51-.68.51-1.19,0-.57-.25-1-.77-1.31s-1.23-.46-2.16-.46h-.22l-.16-.89c1.03-.13,1.8-.36,2.29-.69.5-.33.74-.74.74-1.24,0-.4-.14-.71-.42-.93-.28-.22-.67-.33-1.18-.33s-.93.12-1.21.35c-.29.23-.43.56-.43.98h-1.46c0-.54.13-1.01.38-1.39s.63-.68,1.11-.88c.49-.2,1.07-.3,1.76-.3.93,0,1.65.19,2.15.56.51.38.76.91.76,1.61,0,.37-.08.72-.25,1.04-.17.32-.41.59-.71.81s-.66.39-1.06.49v.14c.46.08.86.23,1.21.46Z"/>
        <path class="cls-15" d="M59.93,338c.31.19.54.48.69.88.15.4.22.92.22,1.56h-1.44c0-.52-.08-.9-.24-1.14-.16-.23-.41-.35-.76-.35-.61,0-1.06.26-1.37.78-.31.52-.46,1.27-.46,2.26v1.91h1.78v1.2h-4.84v-1.2h1.61v-4.84h-1.34v-1.2h2.52l.25,1.86h.16c.04-.67.23-1.17.56-1.5s.81-.5,1.44-.5c.5,0,.91.09,1.22.28Z"/>
        <path class="cls-15" d="M68.23,334.85v10.25l-1.3.07-.12-1.19h-.16c-.05.41-.24.72-.58.94s-.79.32-1.35.32c-.61,0-1.13-.14-1.56-.43-.43-.28-.76-.7-.98-1.25-.22-.55-.34-1.22-.34-2.01s.11-1.5.34-2.07c.23-.57.56-1.01.99-1.31.43-.3.96-.45,1.57-.45s1.03.12,1.34.36c.32.24.51.6.57,1.09h.14v-4.32h1.45ZM66.78,342.78v-1.75c0-1.39-.62-2.08-1.85-2.08-.53,0-.94.23-1.23.68-.29.45-.43,1.09-.43,1.92s.14,1.42.42,1.84.7.62,1.26.62c1.22,0,1.83-.41,1.83-1.23Z"/>
        <path class="cls-15" d="M84.82,345.08c-.64.11-1.28.16-1.9.16-.74,0-1.33-.1-1.79-.3s-.79-.51-1-.93-.32-.97-.32-1.64v-3.31h-1.82v-1.2h1.82v-2.19h1.45v2.19h3.29v1.2h-3.29v3.24c0,.58.14,1,.42,1.25.28.26.74.39,1.38.39.21,0,.43-.01.67-.03.24-.02.55-.06.93-.1l.16,1.27Z"/>
        <path class="cls-15" d="M91.09,343.91h2.23v1.19h-6.44v-1.19h2.76v-4.85h-2.35v-1.2h3.8v6.06ZM89.77,336.57c-.16-.09-.28-.21-.37-.37s-.14-.32-.14-.51.05-.35.14-.51.21-.28.37-.37.32-.14.51-.14.35.05.51.14.28.21.37.37.14.32.14.51-.05.35-.14.51-.21.28-.37.37-.32.14-.51.14-.35-.05-.51-.14Z"/>
        <path class="cls-15" d="M101.22,342.12h-4.89c.13.6.42,1.06.86,1.37s1.03.47,1.76.47c.56,0,1.15-.06,1.78-.19l.18,1.27c-.67.13-1.38.19-2.12.19-.83,0-1.53-.15-2.1-.44-.58-.29-1.02-.72-1.32-1.28-.3-.56-.45-1.25-.45-2.05s.13-1.46.38-2.02.63-.99,1.12-1.29c.49-.3,1.08-.44,1.77-.44.98,0,1.74.3,2.28.9s.8,1.46.8,2.58c0,.33-.01.64-.04.93ZM99.95,341.02c0-.65-.15-1.15-.46-1.5-.31-.35-.74-.53-1.29-.53s-1.01.18-1.34.53-.53.85-.59,1.5h3.68Z"/>
        <path class="cls-15" d="M109.15,338c.31.19.54.48.69.88.15.4.22.92.22,1.56h-1.44c0-.52-.08-.9-.24-1.14-.16-.23-.41-.35-.76-.35-.61,0-1.06.26-1.37.78-.31.52-.46,1.27-.46,2.26v1.91h1.78v1.2h-4.84v-1.2h1.61v-4.84h-1.34v-1.2h2.52l.25,1.86h.16c.04-.67.23-1.17.56-1.5s.81-.5,1.44-.5c.5,0,.91.09,1.22.28Z"/>
        <path class="cls-15" d="M67.95,353.48c.74.85,1.11,2.13,1.11,3.85,0,1.53-.37,2.68-1.11,3.44s-1.85,1.14-3.34,1.14h-2.35v-9.71h2.35c1.49,0,2.6.43,3.34,1.28ZM66.87,359.75c.5-.57.76-1.42.76-2.56,0-2.46-1-3.69-3.01-3.69h-.98v7.11h.98c1,0,1.75-.29,2.25-.85Z"/>
        <path class="cls-15" d="M75.18,359.54h-3.45l-.64,2.37h-1.44l2.8-9.71h1.98l2.8,9.71h-1.44l-.64-2.37ZM74.83,358.24l-1.31-4.87h-.12l-1.31,4.87h2.75Z"/>
        <path class="cls-15" d="M85.24,353.5h-2.87v8.41h-1.37v-8.41h-2.87v-1.3h7.11v1.3Z"/>
        <path class="cls-15" d="M91.59,359.54h-3.45l-.64,2.37h-1.44l2.8-9.71h1.98l2.8,9.71h-1.44l-.64-2.37ZM91.24,358.24l-1.31-4.87h-.12l-1.31,4.87h2.75Z"/>
      </g>
      <line class="cls-8" x1="237.66" y1="126.83" x2="237.66" y2="83.37"/>
      <line class="cls-8" x1="237.66" y1="224.25" x2="237.66" y2="180.79"/>
      <line class="cls-8" x1="237.66" y1="321.63" x2="237.66" y2="278.18"/>
      <rect class="cls-20" x="362.82" y="29.97" width="9.39" height="332.78"/>
      <g>
        <path class="cls-11" d="M388.58,257.42c-.03.39-.08.74-.16,1.06l-1.31-.16c.15-.93.22-1.7.22-2.31,0-.73-.07-1.26-.21-1.59-.14-.33-.37-.5-.69-.5-.21,0-.37.06-.48.17-.11.11-.2.29-.26.54l-.42,1.67c-.12.46-.25.84-.41,1.11s-.35.49-.59.62c-.24.14-.54.21-.9.21-.53,0-.96-.13-1.29-.39-.33-.26-.57-.66-.73-1.2-.16-.54-.23-1.25-.23-2.13,0-.67.05-1.3.14-1.91l1.26.15c-.06.69-.1,1.29-.1,1.8,0,.77.07,1.32.21,1.66.14.34.37.51.68.51.2,0,.35-.06.45-.18s.19-.32.26-.6l.33-1.34c.13-.52.28-.94.45-1.26s.39-.56.65-.71.58-.23.96-.23c.52,0,.95.12,1.28.38.33.25.57.64.72,1.17.16.53.23,1.21.23,2.05,0,.56-.02,1.03-.05,1.42Z"/>
        <path class="cls-11" d="M378.79,245.73l2,1.71v.88l-2-1.23v-1.36ZM385.33,249.63c1.67-.03,2.35-1.09,2.35-2.33,0-.88-.15-1.42-.35-1.88l.88-.21c.2.43.42,1.18.42,2.25,0,2.09-1.37,3.33-3.42,3.33s-3.66-1.21-3.66-3.18c0-2.21,1.95-2.8,3.19-2.8.25,0,.45.03.57.04v4.76ZM384.45,246.02c-.79-.01-2,.32-2,1.71,0,1.25,1.15,1.79,2,1.89v-3.6Z"/>
        <path class="cls-11" d="M388.24,238.47c.17.32.39,1.04.39,1.95,0,2.04-1.39,3.38-3.46,3.38s-3.6-1.43-3.6-3.64c0-.73.18-1.37.35-1.71l.95.28c-.17.29-.32.76-.32,1.43,0,1.55,1.15,2.39,2.56,2.39,1.57,0,2.54-1.01,2.54-2.35,0-.7-.18-1.16-.34-1.51l.92-.21Z"/>
        <path class="cls-11" d="M386.64,231.36c.7,0,1.32-.01,1.85-.06v1.09l-1.11.07v.03c.55.32,1.26,1.04,1.26,2.24,0,1.06-.59,2.34-2.97,2.34h-3.96v-1.23h3.75c1.29,0,2.16-.39,2.16-1.51,0-.83-.57-1.4-1.12-1.62-.18-.07-.41-.11-.63-.11h-4.16v-1.23h4.93Z"/>
        <path class="cls-11" d="M383.83,229.32c-.8,0-1.49.01-2.12.06v-1.08l1.33-.04v-.06c-.91-.31-1.48-1.05-1.48-1.88,0-.14.01-.24.04-.35h1.16c-.03.13-.04.25-.04.42,0,.87.66,1.48,1.58,1.65.17.03.36.06.57.06h3.61v1.22h-4.66Z"/>
        <path class="cls-11" d="M379.81,223.31c.42-.01.76.29.76.78,0,.43-.34.74-.76.74s-.77-.32-.77-.77.34-.76.77-.76ZM388.49,224.69h-6.78v-1.23h6.78v1.23Z"/>
        <path class="cls-11" d="M379.77,219.93h1.95v-1.76h.94v1.76h3.66c.84,0,1.32-.24,1.32-.92,0-.32-.04-.56-.08-.71l.92-.06c.1.24.17.62.17,1.09,0,.57-.18,1.04-.52,1.33-.36.35-.97.48-1.77.48h-3.7v1.05h-.94v-1.05h-1.62l-.32-1.21Z"/>
        <path class="cls-11" d="M378.79,212.27l2,1.71v.88l-2-1.23v-1.36ZM385.33,216.17c1.67-.03,2.35-1.09,2.35-2.33,0-.88-.15-1.42-.35-1.88l.88-.21c.2.43.42,1.18.42,2.25,0,2.09-1.37,3.33-3.42,3.33s-3.66-1.21-3.66-3.18c0-2.21,1.95-2.8,3.19-2.8.25,0,.45.03.57.04v4.76ZM384.45,212.56c-.79-.01-2,.32-2,1.71,0,1.25,1.15,1.79,2,1.89v-3.6Z"/>
        <path class="cls-11" d="M378.79,205.21l2-1.22v.87l-2,1.71v-1.36ZM388.49,203.12l-.85.1v.04c.53.38,1.01,1.11,1.01,2.07,0,1.37-.97,2.07-1.95,2.07-1.64,0-2.54-1.46-2.52-4.08h-.14c-.56,0-1.57.15-1.57,1.54,0,.63.2,1.29.5,1.76l-.81.28c-.36-.56-.6-1.37-.6-2.23,0-2.07,1.42-2.58,2.77-2.58h2.54c.59,0,1.16-.03,1.62-.11v1.12ZM385.03,203.31c-.03,1.34.21,2.87,1.53,2.87.8,0,1.18-.53,1.18-1.16,0-.88-.56-1.44-1.13-1.64-.13-.04-.27-.07-.39-.07h-1.18Z"/>
        <path class="cls-11" d="M388.49,193.41l-.85.1v.04c.53.38,1.01,1.11,1.01,2.07,0,1.37-.97,2.07-1.95,2.07-1.64,0-2.54-1.46-2.52-4.08h-.14c-.56,0-1.57.15-1.57,1.54,0,.63.2,1.29.5,1.76l-.81.28c-.36-.56-.6-1.37-.6-2.23,0-2.07,1.42-2.58,2.77-2.58h2.54c.59,0,1.16-.03,1.62-.11v1.12ZM385.03,193.59c-.03,1.34.21,2.87,1.53,2.87.8,0,1.18-.53,1.18-1.16,0-.88-.56-1.44-1.13-1.64-.13-.04-.27-.07-.39-.07h-1.18Z"/>
        <path class="cls-11" d="M388.24,185.58c.17.32.39,1.04.39,1.95,0,2.04-1.39,3.38-3.46,3.38s-3.6-1.43-3.6-3.64c0-.73.18-1.37.35-1.71l.95.28c-.17.29-.32.76-.32,1.43,0,1.55,1.15,2.39,2.56,2.39,1.57,0,2.54-1.01,2.54-2.35,0-.7-.18-1.16-.34-1.51l.92-.21Z"/>
        <path class="cls-11" d="M388.24,179.39c.17.32.39,1.04.39,1.95,0,2.04-1.39,3.38-3.46,3.38s-3.6-1.43-3.6-3.64c0-.73.18-1.37.35-1.71l.95.28c-.17.29-.32.76-.32,1.43,0,1.55,1.15,2.39,2.56,2.39,1.57,0,2.54-1.01,2.54-2.35,0-.7-.18-1.16-.34-1.51l.92-.21Z"/>
        <path class="cls-11" d="M383.83,177.96c-.8,0-1.49.01-2.12.06v-1.08l1.33-.04v-.06c-.91-.31-1.48-1.05-1.48-1.88,0-.14.01-.24.04-.35h1.16c-.03.13-.04.25-.04.42,0,.87.66,1.48,1.58,1.65.17.03.36.06.57.06h3.61v1.22h-4.66Z"/>
        <path class="cls-11" d="M385.05,167.38c2.51,0,3.6,1.74,3.6,3.38,0,1.83-1.34,3.25-3.49,3.25-2.27,0-3.6-1.48-3.6-3.36s1.42-3.26,3.49-3.26ZM385.12,172.76c1.49,0,2.61-.85,2.61-2.06s-1.11-2.06-2.63-2.06c-1.15,0-2.6.57-2.6,2.03s1.34,2.09,2.63,2.09Z"/>
        <path class="cls-11" d="M378.79,164.79l2-1.34v.95l-1.33.81v.03l1.33.81v.91l-2-1.32v-.85ZM388.49,165.83h-6.78v-1.23h6.78v1.23Z"/>
        <path class="cls-11" d="M379.77,161.07h1.95v-1.76h.94v1.76h3.66c.84,0,1.32-.24,1.32-.92,0-.32-.04-.56-.08-.71l.92-.06c.1.24.17.62.17,1.09,0,.57-.18,1.04-.52,1.33-.36.35-.97.48-1.77.48h-3.7v1.05h-.94v-1.05h-1.62l-.32-1.21Z"/>
        <path class="cls-11" d="M383.83,157.92c-.8,0-1.49.01-2.12.06v-1.08l1.33-.04v-.06c-.91-.31-1.48-1.05-1.48-1.88,0-.14.01-.24.04-.35h1.16c-.03.13-.04.25-.04.42,0,.87.66,1.48,1.58,1.65.17.03.36.06.57.06h3.61v1.22h-4.66Z"/>
        <path class="cls-11" d="M385.33,152.8c1.67-.03,2.35-1.09,2.35-2.33,0-.88-.15-1.42-.35-1.88l.88-.21c.2.43.42,1.18.42,2.25,0,2.09-1.37,3.33-3.42,3.33s-3.66-1.21-3.66-3.18c0-2.21,1.95-2.8,3.19-2.8.25,0,.45.03.57.04v4.76ZM384.45,149.18c-.79-.01-2,.32-2,1.71,0,1.25,1.15,1.79,2,1.89v-3.6Z"/>
      </g>
    </g>
    <g id="logso">
      <g>
        <path class="cls-17" d="M198.61,164.39l-1.9-23.23,22.7.05-2.01,23.18-9.25,2.68-9.54-2.68Z"/>
        <path class="cls-21" d="M208.14,164.83v-21.45l9.35.03-1.67,19.19-7.68,2.23Z"/>
        <path class="cls-3" d="M214.92,148.73l.26-2.84h-14.38l.79,8.69h9.92l-.39,3.71-3.18.86-3.23-.93-.17-2.21h-2.85l.39,4.52,5.86,1.64,5.9-1.64.79-8.82h-10.42l-.3-2.98h10.98Z"/>
      </g>
      <g>
        <path class="cls-13" d="M227.97,164.39l-1.9-23.23,22.7.05-2.01,23.18-9.25,2.68-9.54-2.68Z"/>
        <path class="cls-18" d="M237.5,164.83v-21.45l9.35.03-1.67,19.19-7.68,2.23Z"/>
        <path class="cls-3" d="M244.53,146.11h-14.38l.39,2.8h6.82l-6.71,2.88.39,2.71h9.89l-.36,3.79-3.35.65-3.04-.78-.23-2.15h-2.79l.37,4.47,5.98,1.67,5.73-1.82.73-8.74h-6.06l6.61-2.74v-2.74Z"/>
      </g>
      <g>
        <path class="cls-14" d="M257.33,164.39l-1.9-23.23,22.7.05-2.01,23.18-9.25,2.68-9.54-2.68Z"/>
        <path class="cls-4" d="M266.87,164.83v-21.45l9.35.03-1.67,19.19-7.68,2.23Z"/>
        <path class="cls-3" d="M265.87,145.92h-2.47v14.28l-1.92-.37v-1.92l-2.29-.37v4.3l6.68,1.74v-17.67ZM267.72,145.92h6.84l-.46,2.74h-3.77v4.49h3.77l-.46,9.06-5.93,1.37v-2.84l4-1.37.23-3.75-4.24.61v-10.32Z"/>
      </g>
      <g>
        <path class="cls-9" d="M202.37,259.1s-1.19.69.85.93c2.47.28,3.74.24,6.47-.27,0,0,.72.45,1.72.84-6.11,2.62-13.84-.15-9.03-1.49M201.62,255.68s-1.34.99.71,1.2c2.64.27,4.73.3,8.34-.4,0,0,.5.51,1.29.78-7.39,2.16-15.62.17-10.33-1.59"/>
        <path class="cls-19" d="M207.92,249.88c1.51,1.73-.4,3.29-.4,3.29,0,0,3.82-1.97,2.07-4.45-1.64-2.31-2.9-3.45,3.91-7.4,0,0-10.69,2.67-5.58,8.55"/>
        <path class="cls-9" d="M216,261.63s.88.73-.97,1.29c-3.53,1.07-14.69,1.39-17.79.04-1.11-.48.98-1.16,1.63-1.3.69-.15,1.08-.12,1.08-.12-1.24-.87-8.01,1.71-3.44,2.45,12.46,2.02,22.72-.91,19.49-2.37M202.94,252.14s-5.68,1.35-2.01,1.84c1.55.21,4.63.16,7.51-.08,2.35-.2,4.71-.62,4.71-.62,0,0-.83.35-1.43.76-5.76,1.52-16.9.81-13.69-.74,2.71-1.31,4.91-1.16,4.91-1.16M213.12,257.83c5.86-3.04,3.15-5.97,1.26-5.58-.46.1-.67.18-.67.18,0,0,.17-.27.5-.39,3.74-1.32,6.62,3.88-1.21,5.94,0,0,.09-.08.12-.15"/>
        <path class="cls-19" d="M209.59,234.95s3.24,3.25-3.08,8.24c-5.07,4-1.16,6.29,0,8.89-2.96-2.67-5.13-5.02-3.67-7.21,2.14-3.21,8.06-4.77,6.75-9.92"/>
        <path class="cls-9" d="M203.52,266.08c5.62.36,14.26-.2,14.46-2.86,0,0-.39,1.01-4.65,1.81-4.8.9-10.72.8-14.23.22,0,0,.72.59,4.41.83"/>
      </g>
      <g>
        <path class="cls-16" d="M268.64,262.06c-.31,0-.61-.08-.88-.24l-2.81-1.66c-.42-.23-.22-.32-.08-.37.45-.14.87-.33,1.27-.57.07-.03.15-.03.21.02l2.16,1.28c.08.04.18.04.26,0l8.42-4.86c.08-.05.13-.13.13-.23v-9.72c0-.09-.05-.18-.13-.23l-8.42-4.86c-.08-.05-.18-.05-.26,0l-8.42,4.86c-.08.05-.13.14-.13.23v9.72c0,.09.05.18.13.22l2.31,1.33c1.25.63,2.02-.11,2.02-.85v-9.6c0-.14.11-.25.25-.25h1.07c.14,0,.25.11.25.25h0v9.6c0,1.67-.91,2.63-2.49,2.63-.68.01-1.36-.17-1.94-.53l-2.21-1.27c-.55-.32-.88-.9-.88-1.54v-9.72c0-.63.34-1.22.88-1.54l8.42-4.86c.55-.3,1.22-.3,1.77,0l8.42,4.86c.55.32.88.9.88,1.53v9.72c0,.63-.34,1.22-.88,1.54l-8.42,4.86c-.27.16-.57.24-.88.24h0Z"/>
        <path class="cls-16" d="M267.05,252.17c0-.14.11-.25.25-.25h1.09c.12,0,.22.09.24.21.16,1.11.66,1.67,2.88,1.67,1.77,0,2.53-.4,2.53-1.34,0-.54-.21-.95-2.97-1.22-2.3-.23-3.73-.74-3.73-2.58,0-1.7,1.43-2.71,3.83-2.71,2.7,0,4.03.94,4.2,2.95.01.14-.09.25-.23.26,0,0-.01,0-.02,0h-1.1c-.11,0-.21-.08-.24-.19-.26-1.17-.9-1.54-2.63-1.54-1.94,0-2.16.67-2.16,1.18,0,.61.27.79,2.88,1.14,2.59.34,3.82.83,3.82,2.65s-1.53,2.89-4.2,2.89c-3.69,0-4.46-1.69-4.46-3.11h0Z"/>
      </g>
      <g>
        <path class="cls-2" d="M237.46,237.93c-6.45,0-6.05,2.8-6.05,2.8v2.9h6.16v.87h-8.6s-4.13-.47-4.13,6.04,3.6,6.28,3.6,6.28h2.15v-3.02s-.12-3.6,3.55-3.6h6.11s3.43.06,3.43-3.32v-5.57s.52-3.37-6.22-3.37ZM234.07,239.88c.61,0,1.11.49,1.11,1.11,0,0,0,0,0,0,0,.61-.49,1.11-1.11,1.11,0,0,0,0,0,0-.61,0-1.11-.49-1.11-1.11,0,0,0,0,0,0,0-.61.49-1.11,1.11-1.11,0,0,0,0,0,0Z"/>
        <path class="cls-10" d="M237.65,263.21c6.45,0,6.05-2.8,6.05-2.8v-2.9h-6.16v-.87h8.6s4.13.47,4.13-6.04-3.6-6.28-3.6-6.28h-2.15v3.02s.12,3.6-3.55,3.6h-6.11s-3.43-.06-3.43,3.32v5.57s-.52,3.37,6.22,3.37h0ZM241.04,261.26c-.61,0-1.11-.49-1.11-1.11h0c0-.61.49-1.11,1.11-1.11h0c.61,0,1.11.49,1.11,1.11h0c0,.61-.49,1.11-1.11,1.11h0Z"/>
      </g>
    </g>
  </g>
</svg>